<?xml version="1.0" encoding="UTF-8"?>
<svg xmlns="http://www.w3.org/2000/svg" width="1920" height="1080" viewBox="0 0 1920 1080"><defs><pattern id="s07-dots0" width="32" height="32" patternUnits="userSpaceOnUse"><circle cx="16" cy="16" r="1.2" fill="#F2F2F0" fill-opacity="0.07"/></pattern><linearGradient id="s07-aur1" x1="0" y1="0" x2="0" y2="1"><stop offset="0" stop-color="#3EAF75" stop-opacity="0"/><stop offset="0.5" stop-color="#3EAF75" stop-opacity="0.128"/><stop offset="1" stop-color="#3EAF75" stop-opacity="0"/></linearGradient></defs><rect x="0" y="0" width="1920" height="1080" fill="#0B0B0C"/><rect x="0" y="0" width="1920" height="1080" fill="url(#s07-dots0)"/><polygon points="180,0 300,0 -120,1080 -240,1080" fill="url(#s07-aur1)" opacity="0.9"/><polygon points="520,0 580,0 160,1080 100,1080" fill="url(#s07-aur1)" opacity="0.5"/><polygon points="980,0 1140,0 720,1080 560,1080" fill="url(#s07-aur1)" opacity="1"/><polygon points="1420,0 1500,0 1080,1080 1000,1080" fill="url(#s07-aur1)" opacity="0.6"/><polygon points="1760,0 1880,0 1460,1080 1340,1080" fill="url(#s07-aur1)" opacity="0.8"/><path d="M630 320V260H690M1230 260H1290V320M1290 560V620H1230M690 620H630V560" fill="none" stroke="#3EAF75" stroke-width="8" stroke-linecap="square"/><text x="960" y="515" font-family="Bricolage Grotesque" font-size="220" font-weight="800" fill="#F2F2F0" text-anchor="middle" letter-spacing="-8"><tspan>br</tspan><tspan fill="#3EAF75">e</tspan><tspan>w</tspan></text><text x="960" y="760" font-family="Bricolage Grotesque" font-size="64" font-weight="500" fill="#F2F2F0" text-anchor="middle" letter-spacing="-2">We make the whole video.</text><text x="960" y="830" font-family="IBM Plex Mono" font-size="15" font-weight="500" fill="#8A8A91" text-anchor="middle" letter-spacing="5">SCALE WITH BREW</text><line x1="0" y1="46" x2="1920" y2="46" stroke="#35353C" stroke-width="1"/><line x1="24" y1="46" x2="24" y2="36" stroke="#35353C" stroke-width="1"/><line x1="120" y1="46" x2="120" y2="41" stroke="#35353C" stroke-width="1"/><line x1="216" y1="46" x2="216" y2="41" stroke="#35353C" stroke-width="1"/><line x1="312" y1="46" x2="312" y2="41" stroke="#35353C" stroke-width="1"/><line x1="408" y1="46" x2="408" y2="41" stroke="#35353C" stroke-width="1"/><line x1="504" y1="46" x2="504" y2="36" stroke="#35353C" stroke-width="1"/><line x1="600" y1="46" x2="600" y2="41" stroke="#35353C" stroke-width="1"/><line x1="696" y1="46" x2="696" y2="41" stroke="#35353C" stroke-width="1"/><line x1="792" y1="46" x2="792" y2="41" stroke="#35353C" stroke-width="1"/><line x1="888" y1="46" x2="888" y2="41" stroke="#35353C" stroke-width="1"/><line x1="984" y1="46" x2="984" y2="36" stroke="#35353C" stroke-width="1"/><line x1="1080" y1="46" x2="1080" y2="41" stroke="#35353C" stroke-width="1"/><line x1="1176" y1="46" x2="1176" y2="41" stroke="#35353C" stroke-width="1"/><line x1="1272" y1="46" x2="1272" y2="41" stroke="#35353C" stroke-width="1"/><line x1="1368" y1="46" x2="1368" y2="41" stroke="#35353C" stroke-width="1"/><line x1="1464" y1="46" x2="1464" y2="36" stroke="#35353C" stroke-width="1"/><line x1="1560" y1="46" x2="1560" y2="41" stroke="#35353C" stroke-width="1"/><line x1="1656" y1="46" x2="1656" y2="41" stroke="#35353C" stroke-width="1"/><line x1="1752" y1="46" x2="1752" y2="41" stroke="#35353C" stroke-width="1"/><line x1="1848" y1="46" x2="1848" y2="41" stroke="#35353C" stroke-width="1"/><line x1="258" y1="26" x2="258" y2="58" stroke="#3EAF75" stroke-width="2"/><polygon points="252,26 264,26 258,33" fill="#3EAF75"/><text x="24" y="26" font-family="IBM Plex Mono" font-size="13" font-weight="400" fill="#3EAF75" letter-spacing="1">00:00:09:00</text><text x="1896" y="26" font-family="IBM Plex Mono" font-size="13" font-weight="400" fill="#8A8A91" text-anchor="end" letter-spacing="1">00:01:12:00</text><text x="48" y="1044" font-family="IBM Plex Mono" font-size="13" font-weight="500" fill="#8A8A91" letter-spacing="2">SHOT 07 — BREW</text><text x="1872" y="1044" font-family="IBM Plex Mono" font-size="13" font-weight="500" fill="#8A8A91" text-anchor="end" letter-spacing="2">ACT II · FREEZE &amp; REVEAL</text></svg>
