<?xml version="1.0" encoding="UTF-8"?>
<svg xmlns="http://www.w3.org/2000/svg" width="1920" height="1080" viewBox="0 0 1920 1080"><defs><pattern id="s18-dots0" width="32" height="32" patternUnits="userSpaceOnUse"><circle cx="16" cy="16" r="1.2" fill="#F2F2F0" fill-opacity="0.07"/></pattern><linearGradient id="s18-aur1" x1="0" y1="0" x2="0" y2="1"><stop offset="0" stop-color="#3EAF75" stop-opacity="0"/><stop offset="0.5" stop-color="#3EAF75" stop-opacity="0.096"/><stop offset="1" stop-color="#3EAF75" stop-opacity="0"/></linearGradient></defs><rect x="0" y="0" width="1920" height="1080" fill="#0B0B0C"/><rect x="0" y="0" width="1920" height="1080" fill="url(#s18-dots0)"/><polygon points="180,0 300,0 -120,1080 -240,1080" fill="url(#s18-aur1)" opacity="0.9"/><polygon points="520,0 580,0 160,1080 100,1080" fill="url(#s18-aur1)" opacity="0.5"/><polygon points="980,0 1140,0 720,1080 560,1080" fill="url(#s18-aur1)" opacity="1"/><polygon points="1420,0 1500,0 1080,1080 1000,1080" fill="url(#s18-aur1)" opacity="0.6"/><polygon points="1760,0 1880,0 1460,1080 1340,1080" fill="url(#s18-aur1)" opacity="0.8"/><rect x="628" y="96" width="73" height="30" rx="15" fill="none" stroke="#35353C" stroke-width="1"/><text x="642" y="115.68" font-family="IBM Plex Mono" font-size="13" font-weight="500" fill="#B4B4B8" letter-spacing="1.5">TOPIC</text><rect x="711" y="96" width="100.9" height="30" rx="15" fill="none" stroke="#35353C" stroke-width="1"/><text x="725" y="115.68" font-family="IBM Plex Mono" font-size="13" font-weight="500" fill="#B4B4B8" letter-spacing="1.5">RESEARCH</text><rect x="821.9" y="96" width="82.30000000000001" height="30" rx="15" fill="none" stroke="#35353C" stroke-width="1"/><text x="835.9" y="115.68" font-family="IBM Plex Mono" font-size="13" font-weight="500" fill="#B4B4B8" letter-spacing="1.5">SCRIPT</text><rect x="914.2" y="96" width="73" height="30" rx="15" fill="none" stroke="#35353C" stroke-width="1"/><text x="928.2" y="115.68" font-family="IBM Plex Mono" font-size="13" font-weight="500" fill="#B4B4B8" letter-spacing="1.5">VOICE</text><rect x="997.2" y="96" width="63.7" height="30" rx="15" fill="none" stroke="#35353C" stroke-width="1"/><text x="1011.2" y="115.68" font-family="IBM Plex Mono" font-size="13" font-weight="500" fill="#B4B4B8" letter-spacing="1.5">EDIT</text><rect x="1070.9" y="96" width="100.9" height="30" rx="15" fill="none" stroke="#35353C" stroke-width="1"/><text x="1084.9" y="115.68" font-family="IBM Plex Mono" font-size="13" font-weight="500" fill="#B4B4B8" letter-spacing="1.5">REVIEWED</text><rect x="1181.8000000000002" y="96" width="110.2" height="30" rx="15" fill="#3EAF75" stroke="#3EAF75" stroke-width="1.2" fill-opacity="0.14"/><text x="1195.8000000000002" y="115.68" font-family="IBM Plex Mono" font-size="13" font-weight="500" fill="#3EAF75" letter-spacing="1.5">DELIVERED</text><text x="160" y="470" font-family="Bricolage Grotesque" font-size="150" font-weight="700" fill="#F2F2F0" letter-spacing="-5">Every frame</text><text x="160" y="620" font-family="Bricolage Grotesque" font-size="150" font-weight="700" fill="#F2F2F0" letter-spacing="-5">watched by a</text><text x="160" y="770" font-family="Bricolage Grotesque" font-size="150" font-weight="800" fill="#3EAF75" letter-spacing="-5">person.</text><path d="M140 674V640H174M666 640H700V674M700 776V810H666M174 810H140V776" fill="none" stroke="#3EAF75" stroke-width="6" stroke-linecap="square"/><line x1="0" y1="46" x2="1920" y2="46" stroke="#35353C" stroke-width="1"/><line x1="24" y1="46" x2="24" y2="36" stroke="#35353C" stroke-width="1"/><line x1="120" y1="46" x2="120" y2="41" stroke="#35353C" stroke-width="1"/><line x1="216" y1="46" x2="216" y2="41" stroke="#35353C" stroke-width="1"/><line x1="312" y1="46" x2="312" y2="41" stroke="#35353C" stroke-width="1"/><line x1="408" y1="46" x2="408" y2="41" stroke="#35353C" stroke-width="1"/><line x1="504" y1="46" x2="504" y2="36" stroke="#35353C" stroke-width="1"/><line x1="600" y1="46" x2="600" y2="41" stroke="#35353C" stroke-width="1"/><line x1="696" y1="46" x2="696" y2="41" stroke="#35353C" stroke-width="1"/><line x1="792" y1="46" x2="792" y2="41" stroke="#35353C" stroke-width="1"/><line x1="888" y1="46" x2="888" y2="41" stroke="#35353C" stroke-width="1"/><line x1="984" y1="46" x2="984" y2="36" stroke="#35353C" stroke-width="1"/><line x1="1080" y1="46" x2="1080" y2="41" stroke="#35353C" stroke-width="1"/><line x1="1176" y1="46" x2="1176" y2="41" stroke="#35353C" stroke-width="1"/><line x1="1272" y1="46" x2="1272" y2="41" stroke="#35353C" stroke-width="1"/><line x1="1368" y1="46" x2="1368" y2="41" stroke="#35353C" stroke-width="1"/><line x1="1464" y1="46" x2="1464" y2="36" stroke="#35353C" stroke-width="1"/><line x1="1560" y1="46" x2="1560" y2="41" stroke="#35353C" stroke-width="1"/><line x1="1656" y1="46" x2="1656" y2="41" stroke="#35353C" stroke-width="1"/><line x1="1752" y1="46" x2="1752" y2="41" stroke="#35353C" stroke-width="1"/><line x1="1848" y1="46" x2="1848" y2="41" stroke="#35353C" stroke-width="1"/><line x1="882" y1="26" x2="882" y2="58" stroke="#3EAF75" stroke-width="2"/><polygon points="876,26 888,26 882,33" fill="#3EAF75"/><text x="24" y="26" font-family="IBM Plex Mono" font-size="13" font-weight="400" fill="#3EAF75" letter-spacing="1">00:00:33:00</text><text x="1896" y="26" font-family="IBM Plex Mono" font-size="13" font-weight="400" fill="#8A8A91" text-anchor="end" letter-spacing="1">00:01:12:00</text><text x="48" y="1044" font-family="IBM Plex Mono" font-size="13" font-weight="500" fill="#8A8A91" letter-spacing="2">SHOT 18 — EVERY FRAME WATCHED BY A PERSON</text><text x="1872" y="1044" font-family="IBM Plex Mono" font-size="13" font-weight="500" fill="#8A8A91" text-anchor="end" letter-spacing="2">ACT IV · A PERSON WATCHES</text></svg>
