<?xml version="1.0" encoding="UTF-8"?>
<svg xmlns="http://www.w3.org/2000/svg" width="1920" height="1080" viewBox="0 0 1920 1080"><defs><pattern id="s20-dots0" width="32" height="32" patternUnits="userSpaceOnUse"><circle cx="16" cy="16" r="1.2" fill="#F2F2F0" fill-opacity="0.07"/></pattern><clipPath id="s20-clip1"><rect x="874" y="214" width="872" height="478.25" rx="10"/></clipPath></defs><rect x="0" y="0" width="1920" height="1080" fill="#0B0B0C"/><rect x="0" y="0" width="1920" height="1080" fill="url(#s20-dots0)"/><rect x="160" y="170" width="102.2" height="26" rx="4" fill="none" stroke="#D9A441" stroke-width="1.2"/><text x="170" y="187.68" font-family="IBM Plex Mono" font-size="13" font-weight="500" fill="#D9A441" letter-spacing="1.5">WE RUN IT</text><rect x="860" y="200" width="900" height="656.25" rx="18" fill="#131316" stroke="#35353C" stroke-width="1"/><g><g clip-path="url(#s20-clip1)"><rect x="874" y="214" width="872" height="478.25" fill="#DCDFD7"/><polygon points="874.0,477.0 1004.8,443.6 1135.6,414.9 1240.2,386.2 1310.0,371.8 1379.8,386.2 1484.4,357.5 1615.2,338.3 1746.0,357.5 1746.0,510.5 1615.2,491.4 1501.8,529.6 1414.6,567.9 1353.6,587.0 1292.6,548.8 1222.8,558.3 1135.6,596.6 1004.8,577.5 874.0,620.5" fill="#4DB37E"/><polygon points="1571.6,692.3 1658.8,558.3 1746.0,520.1 1746.0,692.3" fill="#4DB37E"/><ellipse cx="1336.16" cy="453.125" rx="39.24" ry="23.9125" fill="#BFD6D0"/><path d="M1310.0 379.0 C1336.2 429.2 1310.0 500.9 1366.7 575.1" fill="none" stroke="#1E2A22" stroke-width="3.488" stroke-linecap="round" stroke-dasharray="8.72 6.976"/><circle cx="1310" cy="378.99625" r="6.976" fill="#1E2A22"/><circle cx="1366.6799999999998" cy="575.07875" r="6.976" fill="#1E2A22"/><text x="1257.68" y="357.475" font-family="IBM Plex Mono" font-size="19.184" font-weight="500" fill="#1E2A22" letter-spacing="1.744">COLÓN</text></g><text x="906" y="513.875" font-family="Bricolage Grotesque" font-size="76.5" font-weight="800" fill="#111" letter-spacing="-3">PANAMA</text><text x="906" y="585.875" font-family="Bricolage Grotesque" font-size="76.5" font-weight="800" fill="#E2634A" letter-spacing="-3">RAN DRY</text></g><rect x="1640" y="642.25" width="92" height="32" rx="6" fill="#000" opacity="0.8"/><text x="1686" y="665.25" font-family="IBM Plex Mono" font-size="16" font-weight="500" fill="#F2F2F0" text-anchor="middle">58:24</text><text x="888" y="746.25" font-family="Archivo" font-size="26" font-weight="600" fill="#F2F2F0">Why the Panama Canal Ran Short of Water</text><text x="888" y="782.25" font-family="Archivo" font-size="18" font-weight="400" fill="#8A8A91">Ready to upload · Day 3 · Two rounds of notes included</text><rect x="888" y="806.25" width="96.8" height="25" rx="4" fill="#3EAF75" stroke="#3EAF75" stroke-width="1.2"/><text x="898" y="823.07" font-family="IBM Plex Mono" font-size="12" font-weight="500" fill="#0B0B0C" letter-spacing="1.5">DELIVERED</text><rect x="1010" y="806.25" width="192.5" height="25" rx="4" fill="none" stroke="#3EAF75" stroke-width="1.2"/><text x="1020" y="823.07" font-family="IBM Plex Mono" font-size="12" font-weight="500" fill="#3EAF75" letter-spacing="1.5">REVIEWED BY A PERSON</text><text x="160" y="470" font-family="Bricolage Grotesque" font-size="96" font-weight="700" fill="#F2F2F0" letter-spacing="-3">A file,</text><text x="160" y="570" font-family="Bricolage Grotesque" font-size="96" font-weight="700" fill="#F2F2F0" letter-spacing="-3">not a first</text><text x="160" y="670" font-family="Bricolage Grotesque" font-size="96" font-weight="700" fill="#F2F2F0" letter-spacing="-3">draft.</text><text x="160" y="800" font-family="IBM Plex Mono" font-size="15" font-weight="500" fill="#D9A441" letter-spacing="2">READY TO UPLOAD · DAY 3</text><line x1="0" y1="46" x2="1920" y2="46" stroke="#35353C" stroke-width="1"/><line x1="24" y1="46" x2="24" y2="36" stroke="#35353C" stroke-width="1"/><line x1="120" y1="46" x2="120" y2="41" stroke="#35353C" stroke-width="1"/><line x1="216" y1="46" x2="216" y2="41" stroke="#35353C" stroke-width="1"/><line x1="312" y1="46" x2="312" y2="41" stroke="#35353C" stroke-width="1"/><line x1="408" y1="46" x2="408" y2="41" stroke="#35353C" stroke-width="1"/><line x1="504" y1="46" x2="504" y2="36" stroke="#35353C" stroke-width="1"/><line x1="600" y1="46" x2="600" y2="41" stroke="#35353C" stroke-width="1"/><line x1="696" y1="46" x2="696" y2="41" stroke="#35353C" stroke-width="1"/><line x1="792" y1="46" x2="792" y2="41" stroke="#35353C" stroke-width="1"/><line x1="888" y1="46" x2="888" y2="41" stroke="#35353C" stroke-width="1"/><line x1="984" y1="46" x2="984" y2="36" stroke="#35353C" stroke-width="1"/><line x1="1080" y1="46" x2="1080" y2="41" stroke="#35353C" stroke-width="1"/><line x1="1176" y1="46" x2="1176" y2="41" stroke="#35353C" stroke-width="1"/><line x1="1272" y1="46" x2="1272" y2="41" stroke="#35353C" stroke-width="1"/><line x1="1368" y1="46" x2="1368" y2="41" stroke="#35353C" stroke-width="1"/><line x1="1464" y1="46" x2="1464" y2="36" stroke="#35353C" stroke-width="1"/><line x1="1560" y1="46" x2="1560" y2="41" stroke="#35353C" stroke-width="1"/><line x1="1656" y1="46" x2="1656" y2="41" stroke="#35353C" stroke-width="1"/><line x1="1752" y1="46" x2="1752" y2="41" stroke="#35353C" stroke-width="1"/><line x1="1848" y1="46" x2="1848" y2="41" stroke="#35353C" stroke-width="1"/><line x1="1051" y1="26" x2="1051" y2="58" stroke="#3EAF75" stroke-width="2"/><polygon points="1045,26 1057,26 1051,33" fill="#3EAF75"/><text x="24" y="26" font-family="IBM Plex Mono" font-size="13" font-weight="400" fill="#3EAF75" letter-spacing="1">00:00:39:12</text><text x="1896" y="26" font-family="IBM Plex Mono" font-size="13" font-weight="400" fill="#8A8A91" text-anchor="end" letter-spacing="1">00:01:12:00</text><text x="48" y="1044" font-family="IBM Plex Mono" font-size="13" font-weight="500" fill="#8A8A91" letter-spacing="2">SHOT 20 — A FILE, NOT A FIRST DRAFT</text><text x="1872" y="1044" font-family="IBM Plex Mono" font-size="13" font-weight="500" fill="#8A8A91" text-anchor="end" letter-spacing="2">ACT V · WHAT WE MAKE</text></svg>
