<?xml version="1.0" encoding="UTF-8"?>
<svg xmlns="http://www.w3.org/2000/svg" width="1920" height="1080" viewBox="0 0 1920 1080"><defs><pattern id="s21-dots0" width="32" height="32" patternUnits="userSpaceOnUse"><circle cx="16" cy="16" r="1.2" fill="#F2F2F0" fill-opacity="0.07"/></pattern></defs><rect x="0" y="0" width="1920" height="1080" fill="#0B0B0C"/><rect x="0" y="0" width="1920" height="1080" fill="url(#s21-dots0)"/><rect x="160" y="170" width="111.5" height="26" rx="4" fill="none" stroke="#3FB8C4" stroke-width="1.2"/><text x="170" y="187.68" font-family="IBM Plex Mono" font-size="13" font-weight="500" fill="#3FB8C4" letter-spacing="1.5">SELF SERVE</text><text x="1760" y="196" font-family="IBM Plex Mono" font-size="18" font-weight="500" fill="#B4B4B8" text-anchor="end" letter-spacing="2">CREDITS  240</text><text x="160" y="320" font-family="Bricolage Grotesque" font-size="72" font-weight="600" fill="#F2F2F0" letter-spacing="-2">AI b-roll, on demand.</text><rect x="160" y="430" width="1600" height="150" rx="16" fill="#131316" stroke="#3FB8C4" stroke-width="1.5"/><text x="210" y="522" font-family="Archivo" font-size="40" font-weight="400" fill="#F2F2F0">our serum bottle, in a hand, on wet marble, morning light</text><rect x="1290" y="486" width="4" height="50" fill="#3FB8C4"/><rect x="160" y="610" width="73" height="30" rx="15" fill="none" stroke="#35353C" stroke-width="1"/><text x="174" y="629.68" font-family="IBM Plex Mono" font-size="13" font-weight="500" fill="#B4B4B8" letter-spacing="1.5">1080P</text><rect x="330" y="610" width="63.7" height="30" rx="15" fill="none" stroke="#35353C" stroke-width="1"/><text x="344" y="629.68" font-family="IBM Plex Mono" font-size="13" font-weight="500" fill="#B4B4B8" letter-spacing="1.5">10 S</text><rect x="500" y="610" width="63.7" height="30" rx="15" fill="none" stroke="#35353C" stroke-width="1"/><text x="514" y="629.68" font-family="IBM Plex Mono" font-size="13" font-weight="500" fill="#B4B4B8" letter-spacing="1.5">16:9</text><rect x="670" y="610" width="138.10000000000002" height="30" rx="15" fill="#3FB8C4" stroke="#3FB8C4" stroke-width="1.2" fill-opacity="0.14"/><text x="684" y="629.68" font-family="IBM Plex Mono" font-size="13" font-weight="500" fill="#3FB8C4" letter-spacing="1.5">12.5 CREDITS</text><rect x="1500" y="610" width="260" height="64" rx="10" fill="#3FB8C4"/><text x="1630" y="652" font-family="Archivo" font-size="24" font-weight="600" fill="#0B0B0C" text-anchor="middle">Generate</text><path d="M0 0L0 30L8 23L13.5 35L18.5 32.8L13 21L23 21Z" fill="#F2F2F0" stroke="#0B0B0C" stroke-width="1.6" stroke-linejoin="round" transform="translate(1660 650) scale(1.3)"/><text x="160" y="780" font-family="IBM Plex Mono" font-size="15" font-weight="500" fill="#8A8A91" letter-spacing="2">THE SHOTS STOCK LIBRARIES DO NOT HAVE</text><line x1="0" y1="46" x2="1920" y2="46" stroke="#35353C" stroke-width="1"/><line x1="24" y1="46" x2="24" y2="36" stroke="#35353C" stroke-width="1"/><line x1="120" y1="46" x2="120" y2="41" stroke="#35353C" stroke-width="1"/><line x1="216" y1="46" x2="216" y2="41" stroke="#35353C" stroke-width="1"/><line x1="312" y1="46" x2="312" y2="41" stroke="#35353C" stroke-width="1"/><line x1="408" y1="46" x2="408" y2="41" stroke="#35353C" stroke-width="1"/><line x1="504" y1="46" x2="504" y2="36" stroke="#35353C" stroke-width="1"/><line x1="600" y1="46" x2="600" y2="41" stroke="#35353C" stroke-width="1"/><line x1="696" y1="46" x2="696" y2="41" stroke="#35353C" stroke-width="1"/><line x1="792" y1="46" x2="792" y2="41" stroke="#35353C" stroke-width="1"/><line x1="888" y1="46" x2="888" y2="41" stroke="#35353C" stroke-width="1"/><line x1="984" y1="46" x2="984" y2="36" stroke="#35353C" stroke-width="1"/><line x1="1080" y1="46" x2="1080" y2="41" stroke="#35353C" stroke-width="1"/><line x1="1176" y1="46" x2="1176" y2="41" stroke="#35353C" stroke-width="1"/><line x1="1272" y1="46" x2="1272" y2="41" stroke="#35353C" stroke-width="1"/><line x1="1368" y1="46" x2="1368" y2="41" stroke="#35353C" stroke-width="1"/><line x1="1464" y1="46" x2="1464" y2="36" stroke="#35353C" stroke-width="1"/><line x1="1560" y1="46" x2="1560" y2="41" stroke="#35353C" stroke-width="1"/><line x1="1656" y1="46" x2="1656" y2="41" stroke="#35353C" stroke-width="1"/><line x1="1752" y1="46" x2="1752" y2="41" stroke="#35353C" stroke-width="1"/><line x1="1848" y1="46" x2="1848" y2="41" stroke="#35353C" stroke-width="1"/><line x1="1142" y1="26" x2="1142" y2="58" stroke="#3EAF75" stroke-width="2"/><polygon points="1136,26 1148,26 1142,33" fill="#3EAF75"/><text x="24" y="26" font-family="IBM Plex Mono" font-size="13" font-weight="400" fill="#3EAF75" letter-spacing="1">00:00:43:00</text><text x="1896" y="26" font-family="IBM Plex Mono" font-size="13" font-weight="400" fill="#8A8A91" text-anchor="end" letter-spacing="1">00:01:12:00</text><text x="48" y="1044" font-family="IBM Plex Mono" font-size="13" font-weight="500" fill="#8A8A91" letter-spacing="2">SHOT 21 — AI B-ROLL: TYPE THE SHOT</text><text x="1872" y="1044" font-family="IBM Plex Mono" font-size="13" font-weight="500" fill="#8A8A91" text-anchor="end" letter-spacing="2">ACT V · WHAT WE MAKE</text></svg>
