<?xml version="1.0" encoding="UTF-8"?>
<svg xmlns="http://www.w3.org/2000/svg" width="1920" height="1080" viewBox="0 0 1920 1080"><defs><pattern id="s27-dots0" width="32" height="32" patternUnits="userSpaceOnUse"><circle cx="16" cy="16" r="1.2" fill="#F2F2F0" fill-opacity="0.07"/></pattern></defs><rect x="0" y="0" width="1920" height="1080" fill="#0B0B0C"/><rect x="0" y="0" width="1920" height="1080" fill="url(#s27-dots0)"/><g transform="translate(960 260) rotate(0) scale(0.75)" opacity="0.22"><rect x="-170" y="-58" width="340" height="116" rx="14" fill="#131316" stroke="#26262B" stroke-width="1.2"/><text x="-146" y="-22" font-family="IBM Plex Mono" font-size="12" font-weight="500" fill="#35353C" letter-spacing="2">STEP 01</text><text x="-146" y="22" font-family="Archivo" font-size="30" font-weight="600" fill="#8A8A91">Find an editor</text><circle cx="142" cy="-27" r="6" fill="#8A8A91"/></g><g transform="translate(1444.9742261192855 410) rotate(0) scale(0.75)" opacity="0.22"><rect x="-170" y="-58" width="340" height="116" rx="14" fill="#131316" stroke="#26262B" stroke-width="1.2"/><text x="-146" y="-22" font-family="IBM Plex Mono" font-size="12" font-weight="500" fill="#35353C" letter-spacing="2">STEP 02</text><text x="-146" y="22" font-family="Archivo" font-size="30" font-weight="600" fill="#8A8A91">Send the brief</text><circle cx="142" cy="-27" r="6" fill="#8A8A91"/></g><g transform="translate(1444.9742261192857 710) rotate(0) scale(0.75)" opacity="0.22"><rect x="-170" y="-58" width="340" height="116" rx="14" fill="#131316" stroke="#26262B" stroke-width="1.2"/><text x="-146" y="-22" font-family="IBM Plex Mono" font-size="12" font-weight="500" fill="#35353C" letter-spacing="2">STEP 03</text><text x="-146" y="22" font-family="Archivo" font-size="30" font-weight="600" fill="#8A8A91">Wait</text><circle cx="142" cy="-27" r="6" fill="#8A8A91"/><text x="126" y="-22" font-family="IBM Plex Mono" font-size="12" font-weight="400" fill="#35353C" text-anchor="end" letter-spacing="1">2 days</text></g><g transform="translate(960 860) rotate(0) scale(0.75)" opacity="0.22"><rect x="-170" y="-58" width="340" height="116" rx="14" fill="#131316" stroke="#26262B" stroke-width="1.2"/><text x="-146" y="-22" font-family="IBM Plex Mono" font-size="12" font-weight="500" fill="#35353C" letter-spacing="2">STEP 04</text><text x="-146" y="22" font-family="Archivo" font-size="30" font-weight="600" fill="#8A8A91">Review</text><circle cx="142" cy="-27" r="6" fill="#8A8A91"/><text x="126" y="-22" font-family="IBM Plex Mono" font-size="12" font-weight="400" fill="#35353C" text-anchor="end" letter-spacing="1">v2</text></g><g transform="translate(475.02577388071444 710.0000000000001) rotate(0) scale(0.75)" opacity="0.22"><rect x="-170" y="-58" width="340" height="116" rx="14" fill="#131316" stroke="#26262B" stroke-width="1.2"/><text x="-146" y="-22" font-family="IBM Plex Mono" font-size="12" font-weight="500" fill="#35353C" letter-spacing="2">STEP 05</text><text x="-146" y="22" font-family="Archivo" font-size="30" font-weight="600" fill="#8A8A91">Request changes</text><circle cx="142" cy="-27" r="6" fill="#8A8A91"/><text x="126" y="-22" font-family="IBM Plex Mono" font-size="12" font-weight="400" fill="#35353C" text-anchor="end" letter-spacing="1">14 notes</text></g><g transform="translate(475.0257738807144 410) rotate(0) scale(0.75)" opacity="0.22"><rect x="-170" y="-58" width="340" height="116" rx="14" fill="#131316" stroke="#26262B" stroke-width="1.2"/><text x="-146" y="-22" font-family="IBM Plex Mono" font-size="12" font-weight="500" fill="#35353C" letter-spacing="2">STEP 06</text><text x="-146" y="22" font-family="Archivo" font-size="30" font-weight="600" fill="#8A8A91">Wait again</text><circle cx="142" cy="-27" r="6" fill="#8A8A91"/><text x="126" y="-22" font-family="IBM Plex Mono" font-size="12" font-weight="400" fill="#35353C" text-anchor="end" letter-spacing="1">3 days</text></g><ellipse cx="960" cy="560" rx="550" ry="290" fill="none" stroke="#35353C" stroke-width="1.5" stroke-dasharray="4 10" opacity="0.22"/><circle cx="960" cy="560" r="240" fill="none" stroke="#3EAF75" stroke-width="1.5" opacity="0.15"/><circle cx="960" cy="560" r="170" fill="none" stroke="#3EAF75" stroke-width="2" opacity="0.3"/><rect x="740" y="520" width="440" height="84" rx="10" fill="#3EAF75"/><text x="960" y="574" font-family="Archivo" font-size="32" font-weight="600" fill="#0B0B0C" text-anchor="middle">Send us a script  →</text><path d="M0 0L0 30L8 23L13.5 35L18.5 32.8L13 21L23 21Z" fill="#F2F2F0" stroke="#0B0B0C" stroke-width="1.6" stroke-linejoin="round" transform="translate(1080 576) scale(1.4)"/><line x1="0" y1="46" x2="1920" y2="46" stroke="#35353C" stroke-width="1"/><line x1="24" y1="46" x2="24" y2="36" stroke="#35353C" stroke-width="1"/><line x1="120" y1="46" x2="120" y2="41" stroke="#35353C" stroke-width="1"/><line x1="216" y1="46" x2="216" y2="41" stroke="#35353C" stroke-width="1"/><line x1="312" y1="46" x2="312" y2="41" stroke="#35353C" stroke-width="1"/><line x1="408" y1="46" x2="408" y2="41" stroke="#35353C" stroke-width="1"/><line x1="504" y1="46" x2="504" y2="36" stroke="#35353C" stroke-width="1"/><line x1="600" y1="46" x2="600" y2="41" stroke="#35353C" stroke-width="1"/><line x1="696" y1="46" x2="696" y2="41" stroke="#35353C" stroke-width="1"/><line x1="792" y1="46" x2="792" y2="41" stroke="#35353C" stroke-width="1"/><line x1="888" y1="46" x2="888" y2="41" stroke="#35353C" stroke-width="1"/><line x1="984" y1="46" x2="984" y2="36" stroke="#35353C" stroke-width="1"/><line x1="1080" y1="46" x2="1080" y2="41" stroke="#35353C" stroke-width="1"/><line x1="1176" y1="46" x2="1176" y2="41" stroke="#35353C" stroke-width="1"/><line x1="1272" y1="46" x2="1272" y2="41" stroke="#35353C" stroke-width="1"/><line x1="1368" y1="46" x2="1368" y2="41" stroke="#35353C" stroke-width="1"/><line x1="1464" y1="46" x2="1464" y2="36" stroke="#35353C" stroke-width="1"/><line x1="1560" y1="46" x2="1560" y2="41" stroke="#35353C" stroke-width="1"/><line x1="1656" y1="46" x2="1656" y2="41" stroke="#35353C" stroke-width="1"/><line x1="1752" y1="46" x2="1752" y2="41" stroke="#35353C" stroke-width="1"/><line x1="1848" y1="46" x2="1848" y2="41" stroke="#35353C" stroke-width="1"/><line x1="1714" y1="26" x2="1714" y2="58" stroke="#3EAF75" stroke-width="2"/><polygon points="1708,26 1720,26 1714,33" fill="#3EAF75"/><text x="24" y="26" font-family="IBM Plex Mono" font-size="13" font-weight="400" fill="#3EAF75" letter-spacing="1">00:01:05:00</text><text x="1896" y="26" font-family="IBM Plex Mono" font-size="13" font-weight="400" fill="#8A8A91" text-anchor="end" letter-spacing="1">00:01:12:00</text><text x="48" y="1044" font-family="IBM Plex Mono" font-size="13" font-weight="500" fill="#8A8A91" letter-spacing="2">SHOT 27 — THE LOOP, ONE LAST TIME</text><text x="1872" y="1044" font-family="IBM Plex Mono" font-size="13" font-weight="500" fill="#8A8A91" text-anchor="end" letter-spacing="2">ACT VI · YOU APPROVE</text></svg>
