<?xml version="1.0" encoding="UTF-8"?>
<svg xmlns="http://www.w3.org/2000/svg" width="1920" height="1080" viewBox="0 0 1920 1080"><defs><radialGradient id="n07-rg0" gradientUnits="userSpaceOnUse" cx="960" cy="380" r="1250"><stop offset="0" stop-color="#07120F" stop-opacity="1"/><stop offset="0.6" stop-color="#040706" stop-opacity="1"/><stop offset="1" stop-color="#000000" stop-opacity="1"/></radialGradient><linearGradient id="n07-lg1" gradientUnits="userSpaceOnUse" x1="0" y1="0" x2="0" y2="1080"><stop offset="0" stop-color="#3FB8C4" stop-opacity="0.44000000000000006"/><stop offset="0.45" stop-color="#3EAF75" stop-opacity="0.17600000000000002"/><stop offset="1" stop-color="#3EAF75" stop-opacity="0"/></linearGradient><linearGradient id="n07-lg2" gradientUnits="userSpaceOnUse" x1="0" y1="0" x2="0" y2="810"><stop offset="0" stop-color="#E6FFF4" stop-opacity="0.68"/><stop offset="0.35" stop-color="#9BF0C8" stop-opacity="0.27999999999999997"/><stop offset="1" stop-color="#9BF0C8" stop-opacity="0"/></linearGradient><radialGradient id="n07-rg3" cx="0.5" cy="0.5" r="0.5"><stop offset="0" stop-color="#9BF0C8" stop-opacity="0.6400000000000001"/><stop offset="0.5" stop-color="#3FB8C4" stop-opacity="0.2"/><stop offset="1" stop-color="#3FB8C4" stop-opacity="0"/></radialGradient><filter id="n07-bl4" filterUnits="userSpaceOnUse" x="-400" y="-400" width="2720" height="1880"><feGaussianBlur stdDeviation="60"/></filter><filter id="n07-bl5" filterUnits="userSpaceOnUse" x="-400" y="-400" width="2720" height="1880"><feGaussianBlur stdDeviation="34"/></filter><filter id="n07-bl6" filterUnits="userSpaceOnUse" x="-400" y="-400" width="2720" height="1880"><feGaussianBlur stdDeviation="18"/></filter><linearGradient id="n07-lg7" gradientUnits="userSpaceOnUse" x1="548" y1="0" x2="1234.1599999999999" y2="0"><stop offset="0" stop-color="#3EAF75" stop-opacity="0.55"/><stop offset="0.6" stop-color="#3FB8C4" stop-opacity="0.25"/><stop offset="1" stop-color="#3FB8C4" stop-opacity="0.12"/></linearGradient><linearGradient id="n07-lg8" gradientUnits="userSpaceOnUse" x1="0" y1="470" x2="0" y2="532"><stop offset="0" stop-color="#FFFFFF" stop-opacity="0.5"/><stop offset="1" stop-color="#FFFFFF" stop-opacity="0.08"/></linearGradient><filter id="n07-bl9" filterUnits="userSpaceOnUse" x="-400" y="-400" width="2720" height="1880"><feGaussianBlur stdDeviation="6"/></filter><filter id="n07-bl10" filterUnits="userSpaceOnUse" x="-400" y="-400" width="2720" height="1880"><feGaussianBlur stdDeviation="6"/></filter><filter id="n07-bl11" filterUnits="userSpaceOnUse" x="-400" y="-400" width="2720" height="1880"><feGaussianBlur stdDeviation="6"/></filter></defs><g data-layer="Background · night"><rect x="0" y="0" width="1920" height="1080" fill="url(#n07-rg0)"/></g><g data-layer="Light beam · cone"><g filter="url(#n07-bl4)"><polygon points="780,0 1140,0 1660,1080 260,1080" fill="url(#n07-lg1)"/></g></g><g data-layer="Light beam · core"><g filter="url(#n07-bl5)"><rect x="879" y="0" width="162" height="864" fill="url(#n07-lg2)"/></g></g><g data-layer="Light beam · hotspot"><ellipse cx="960" cy="-40" rx="620" ry="260" fill="url(#n07-rg3)"/></g><g data-layer="Dust particles"><circle cx="1381.2" cy="487.4" r="1.84" fill="#9BF0C8" opacity="0.75"/><circle cx="950.3" cy="827.9" r="1.50" fill="#9BF0C8" opacity="0.65"/><circle cx="1358.0" cy="337.9" r="1.31" fill="#E6FFF4" opacity="0.43"/><circle cx="615.2" cy="280.8" r="1.98" fill="#E6FFF4" opacity="0.37"/><circle cx="679.1" cy="514.0" r="1.09" fill="#9BF0C8" opacity="0.26"/><circle cx="934.0" cy="314.9" r="0.77" fill="#E6FFF4" opacity="0.28"/><circle cx="397.1" cy="617.3" r="1.56" fill="#9BF0C8" opacity="0.68"/><circle cx="620.6" cy="663.6" r="1.52" fill="#9BF0C8" opacity="0.28"/><circle cx="589.9" cy="662.2" r="1.68" fill="#9BF0C8" opacity="0.76"/><circle cx="1215.9" cy="255.0" r="0.77" fill="#9BF0C8" opacity="0.15"/><circle cx="936.3" cy="214.1" r="1.71" fill="#9BF0C8" opacity="0.43"/><circle cx="1411.5" cy="707.6" r="1.40" fill="#E6FFF4" opacity="0.22"/><circle cx="600.5" cy="534.2" r="2.34" fill="#E6FFF4" opacity="0.57"/><circle cx="1516.2" cy="298.7" r="1.78" fill="#9BF0C8" opacity="0.58"/><circle cx="702.8" cy="279.3" r="2.36" fill="#9BF0C8" opacity="0.34"/><circle cx="608.1" cy="869.3" r="1.34" fill="#E6FFF4" opacity="0.25"/><circle cx="822.1" cy="576.3" r="1.21" fill="#E6FFF4" opacity="0.64"/><circle cx="1091.4" cy="801.4" r="0.78" fill="#E6FFF4" opacity="0.34"/><circle cx="980.6" cy="113.1" r="2.36" fill="#9BF0C8" opacity="0.33"/><circle cx="1051.3" cy="298.4" r="1.83" fill="#9BF0C8" opacity="0.28"/><circle cx="679.6" cy="777.9" r="1.27" fill="#9BF0C8" opacity="0.83"/><circle cx="958.8" cy="797.2" r="2.13" fill="#9BF0C8" opacity="0.66"/><circle cx="561.6" cy="246.1" r="1.19" fill="#E6FFF4" opacity="0.84"/><circle cx="580.4" cy="138.2" r="1.67" fill="#9BF0C8" opacity="0.73"/><circle cx="635.1" cy="463.9" r="2.23" fill="#9BF0C8" opacity="0.30"/><circle cx="525.7" cy="337.4" r="1.96" fill="#E6FFF4" opacity="0.38"/><circle cx="1328.3" cy="596.4" r="1.88" fill="#E6FFF4" opacity="0.57"/><circle cx="463.6" cy="150.5" r="2.22" fill="#E6FFF4" opacity="0.79"/><circle cx="1503.8" cy="185.6" r="1.98" fill="#9BF0C8" opacity="0.60"/><circle cx="671.1" cy="838.1" r="2.40" fill="#9BF0C8" opacity="0.45"/><circle cx="385.0" cy="67.1" r="1.82" fill="#9BF0C8" opacity="0.39"/><circle cx="1079.4" cy="484.6" r="2.24" fill="#9BF0C8" opacity="0.68"/><circle cx="1207.3" cy="586.9" r="0.84" fill="#9BF0C8" opacity="0.16"/><circle cx="1147.4" cy="285.6" r="1.04" fill="#9BF0C8" opacity="0.22"/><circle cx="548.1" cy="488.6" r="1.15" fill="#9BF0C8" opacity="0.75"/><circle cx="1381.5" cy="271.6" r="1.89" fill="#9BF0C8" opacity="0.44"/><circle cx="1287.4" cy="657.3" r="0.90" fill="#E6FFF4" opacity="0.49"/><circle cx="1248.8" cy="656.9" r="0.87" fill="#9BF0C8" opacity="0.62"/><circle cx="1182.0" cy="547.9" r="1.38" fill="#9BF0C8" opacity="0.44"/><circle cx="1075.6" cy="645.6" r="1.32" fill="#E6FFF4" opacity="0.43"/><circle cx="1530.7" cy="462.6" r="2.19" fill="#E6FFF4" opacity="0.48"/><circle cx="593.1" cy="808.7" r="2.07" fill="#9BF0C8" opacity="0.60"/><circle cx="1537.9" cy="200.2" r="0.88" fill="#9BF0C8" opacity="0.26"/><circle cx="691.2" cy="856.4" r="1.39" fill="#9BF0C8" opacity="0.70"/><circle cx="1036.3" cy="543.3" r="1.45" fill="#E6FFF4" opacity="0.32"/><circle cx="1454.8" cy="485.2" r="1.48" fill="#9BF0C8" opacity="0.79"/><circle cx="801.4" cy="314.4" r="1.57" fill="#9BF0C8" opacity="0.44"/><circle cx="821.3" cy="400.5" r="2.34" fill="#9BF0C8" opacity="0.42"/><circle cx="1340.9" cy="470.8" r="0.76" fill="#E6FFF4" opacity="0.52"/><circle cx="963.1" cy="504.8" r="2.48" fill="#E6FFF4" opacity="0.72"/></g><g data-layer="Avatar · Sam"><circle cx="504" cy="488" r="24" fill="#FFFFFF" opacity="0.07"/><circle cx="504" cy="488" r="24" fill="none" stroke="#7D8B85" stroke-width="1.2"/><path d="M12 4a4 4 0 1 0 0 8a4 4 0 1 0 0-8M4.5 20.5c1-4 4-6 7.5-6s6.5 2 7.5 6" fill="none" stroke="#B8C6C0" stroke-width="1.3636363636363635" stroke-linecap="round" stroke-linejoin="round" transform="translate(490.8 474.8) scale(1.1)"/></g><g data-layer="Label · Sam"><text x="548" y="452" font-family="Archivo" font-size="15" font-weight="400" fill="#7D8B85">Sam Carter · Creator</text></g><g data-layer="Prompt bar"><g filter="url(#n07-bl6)" opacity="0.35"><rect x="548" y="470" width="686.16" height="62" rx="14" fill="#3FB8C4"/></g><rect x="548" y="470" width="686.16" height="62" rx="14" fill="url(#n07-lg7)"/><rect x="548.5" y="470.5" width="685.16" height="61" rx="14" fill="none" stroke="url(#n07-lg8)" stroke-width="1.2"/></g><g data-layer="Text · Make a 10-minute explainer: why the Panama Canal ran "><text x="580" y="508" font-family="Archivo" font-size="20" font-weight="500" fill="#F2F2F0">Make a 10-minute explainer: why the Panama Canal ran short of water</text></g><g data-layer="Typing dots"><g filter="url(#n07-bl9)" opacity="0.8"><circle cx="1310" cy="600" r="7" fill="#9BF0C8" opacity="1"/></g><circle cx="1310" cy="600" r="7" fill="#9BF0C8" opacity="1"/><g filter="url(#n07-bl10)" opacity="0.8"><circle cx="1336" cy="600" r="7" fill="#9BF0C8" opacity="0.6"/></g><circle cx="1336" cy="600" r="7" fill="#9BF0C8" opacity="0.6"/><g filter="url(#n07-bl11)" opacity="0.8"><circle cx="1362" cy="600" r="7" fill="#9BF0C8" opacity="0.3"/></g><circle cx="1362" cy="600" r="7" fill="#9BF0C8" opacity="0.3"/></g><text x="48" y="1044" font-family="IBM Plex Mono" font-size="13" font-weight="500" fill="#4E5A55" letter-spacing="2">V4 · SHOT 07 — THE PROMPT</text><text x="1872" y="1044" font-family="IBM Plex Mono" font-size="13" font-weight="500" fill="#4E5A55" text-anchor="end" letter-spacing="2">0:12.0 · 1.5 S · ASK, AND IT'S MADE</text></svg>
