<?xml version="1.0" encoding="UTF-8"?>
<svg xmlns="http://www.w3.org/2000/svg" width="1920" height="1080" viewBox="0 0 1920 1080"><defs><radialGradient id="n16-rg0" gradientUnits="userSpaceOnUse" cx="960" cy="380" r="1250"><stop offset="0" stop-color="#07120F" stop-opacity="1"/><stop offset="0.6" stop-color="#040706" stop-opacity="1"/><stop offset="1" stop-color="#000000" stop-opacity="1"/></radialGradient><pattern id="n16-grid1" width="120" height="120" patternUnits="userSpaceOnUse" x="0" y="60"><path d="M120 0H0V120" fill="none" stroke="#9BF0C8" stroke-opacity="0.04" stroke-width="1"/></pattern><radialGradient id="n16-rg3" gradientUnits="userSpaceOnUse" cx="960" cy="420" r="900"><stop offset="0" stop-color="#fff" stop-opacity="1"/><stop offset="0.55" stop-color="#fff" stop-opacity="0.5"/><stop offset="1" stop-color="#fff" stop-opacity="0"/></radialGradient><mask id="n16-gm2" maskUnits="userSpaceOnUse" x="0" y="0" width="1920" height="1080"><rect width="1920" height="1080" fill="url(#n16-rg3)"/></mask><linearGradient id="n16-lg4" gradientUnits="userSpaceOnUse" x1="0" y1="0" x2="0" y2="1080"><stop offset="0" stop-color="#3FB8C4" stop-opacity="0.55"/><stop offset="0.45" stop-color="#3EAF75" stop-opacity="0.22"/><stop offset="1" stop-color="#3EAF75" stop-opacity="0"/></linearGradient><linearGradient id="n16-lg5" gradientUnits="userSpaceOnUse" x1="0" y1="0" x2="0" y2="810"><stop offset="0" stop-color="#E6FFF4" stop-opacity="0.85"/><stop offset="0.35" stop-color="#9BF0C8" stop-opacity="0.35"/><stop offset="1" stop-color="#9BF0C8" stop-opacity="0"/></linearGradient><radialGradient id="n16-rg6" cx="0.5" cy="0.5" r="0.5"><stop offset="0" stop-color="#9BF0C8" stop-opacity="0.8"/><stop offset="0.5" stop-color="#3FB8C4" stop-opacity="0.25"/><stop offset="1" stop-color="#3FB8C4" stop-opacity="0"/></radialGradient><filter id="n16-bl7" filterUnits="userSpaceOnUse" x="-400" y="-400" width="2720" height="1880"><feGaussianBlur stdDeviation="60"/></filter><filter id="n16-bl8" filterUnits="userSpaceOnUse" x="-400" y="-400" width="2720" height="1880"><feGaussianBlur stdDeviation="34"/></filter><radialGradient id="n16-rg9" gradientUnits="userSpaceOnUse" cx="960" cy="960" r="1530"><stop offset="0" stop-color="#0E2A22" stop-opacity="1"/><stop offset="0.25" stop-color="#06110E" stop-opacity="1"/><stop offset="1" stop-color="#020403" stop-opacity="1"/></radialGradient><linearGradient id="n16-lg10" gradientUnits="userSpaceOnUse" x1="-740" y1="0" x2="2660" y2="0"><stop offset="0" stop-color="#9BF0C8" stop-opacity="0"/><stop offset="0.32" stop-color="#3FB8C4" stop-opacity="0.5"/><stop offset="0.5" stop-color="#E6FFF4" stop-opacity="1"/><stop offset="0.68" stop-color="#3FB8C4" stop-opacity="0.5"/><stop offset="1" stop-color="#9BF0C8" stop-opacity="0"/></linearGradient><radialGradient id="n16-rg11" cx="0.5" cy="0.5" r="0.5"><stop offset="0" stop-color="#3EAF75" stop-opacity="0.55"/><stop offset="0.5" stop-color="#3FB8C4" stop-opacity="0.18"/><stop offset="1" stop-color="#3FB8C4" stop-opacity="0"/></radialGradient><filter id="n16-bl12" filterUnits="userSpaceOnUse" x="-400" y="-400" width="2720" height="1880"><feGaussianBlur stdDeviation="16"/></filter><radialGradient id="n16-rg13" cx="0.5" cy="0.5" r="0.5"><stop offset="0" stop-color="#3EAF75" stop-opacity="0.45"/><stop offset="1" stop-color="#3EAF75" stop-opacity="0"/></radialGradient><filter id="n16-bl14" filterUnits="userSpaceOnUse" x="-400" y="-400" width="2720" height="1880"><feGaussianBlur stdDeviation="20"/></filter><filter id="n16-bl15" filterUnits="userSpaceOnUse" x="-400" y="-400" width="2720" height="1880"><feGaussianBlur stdDeviation="9.6"/></filter><linearGradient id="n16-lg16" x1="0" y1="0" x2="0" y2="1"><stop offset="0" stop-color="#F2F2F0" stop-opacity="1"/><stop offset="1" stop-color="#B8C6C0" stop-opacity="1"/></linearGradient></defs><g data-layer="Background · night"><rect x="0" y="0" width="1920" height="1080" fill="url(#n16-rg0)"/></g><g data-layer="Grid"><rect width="1920" height="1080" fill="url(#n16-grid1)" mask="url(#n16-gm2)"/></g><g data-layer="Light beam · cone"><g filter="url(#n16-bl7)"><polygon points="780,0 1140,0 1720,1080 200,1080" fill="url(#n16-lg4)"/></g></g><g data-layer="Light beam · core"><g filter="url(#n16-bl8)"><rect x="879" y="0" width="162" height="864" fill="url(#n16-lg5)"/></g></g><g data-layer="Light beam · hotspot"><ellipse cx="960" cy="-40" rx="620" ry="260" fill="url(#n16-rg6)"/></g><g data-layer="Dust particles"><circle cx="1469.7" cy="216.3" r="2.26" fill="#E6FFF4" opacity="0.29"/><circle cx="483.4" cy="824.2" r="2.10" fill="#E6FFF4" opacity="0.30"/><circle cx="1251.9" cy="461.4" r="1.01" fill="#E6FFF4" opacity="0.47"/><circle cx="638.8" cy="174.1" r="2.40" fill="#9BF0C8" opacity="0.77"/><circle cx="451.2" cy="794.9" r="2.32" fill="#9BF0C8" opacity="0.84"/><circle cx="476.2" cy="606.5" r="1.03" fill="#E6FFF4" opacity="0.82"/><circle cx="399.0" cy="532.7" r="1.18" fill="#9BF0C8" opacity="0.47"/><circle cx="1228.5" cy="70.3" r="0.89" fill="#9BF0C8" opacity="0.38"/><circle cx="452.2" cy="500.6" r="0.90" fill="#9BF0C8" opacity="0.78"/><circle cx="1041.8" cy="250.7" r="0.81" fill="#9BF0C8" opacity="0.47"/><circle cx="1017.3" cy="403.0" r="2.26" fill="#E6FFF4" opacity="0.21"/><circle cx="1418.2" cy="60.8" r="2.07" fill="#9BF0C8" opacity="0.52"/><circle cx="894.1" cy="899.4" r="1.07" fill="#9BF0C8" opacity="0.31"/><circle cx="1100.7" cy="212.6" r="2.23" fill="#E6FFF4" opacity="0.76"/><circle cx="825.9" cy="360.5" r="2.45" fill="#9BF0C8" opacity="0.81"/><circle cx="578.6" cy="731.1" r="0.85" fill="#9BF0C8" opacity="0.55"/><circle cx="413.8" cy="701.0" r="1.48" fill="#9BF0C8" opacity="0.53"/><circle cx="613.3" cy="687.4" r="1.71" fill="#9BF0C8" opacity="0.54"/><circle cx="755.8" cy="382.8" r="1.99" fill="#E6FFF4" opacity="0.27"/><circle cx="1102.5" cy="816.0" r="2.04" fill="#9BF0C8" opacity="0.72"/><circle cx="853.6" cy="253.6" r="2.10" fill="#9BF0C8" opacity="0.77"/><circle cx="693.7" cy="423.4" r="1.15" fill="#9BF0C8" opacity="0.70"/><circle cx="375.1" cy="297.8" r="1.67" fill="#9BF0C8" opacity="0.28"/><circle cx="1355.0" cy="198.3" r="0.96" fill="#9BF0C8" opacity="0.44"/><circle cx="1079.3" cy="823.0" r="2.00" fill="#9BF0C8" opacity="0.21"/><circle cx="571.8" cy="680.0" r="1.65" fill="#9BF0C8" opacity="0.73"/><circle cx="921.7" cy="132.7" r="1.09" fill="#E6FFF4" opacity="0.15"/><circle cx="910.9" cy="398.4" r="1.68" fill="#9BF0C8" opacity="0.32"/><circle cx="1023.0" cy="243.4" r="2.39" fill="#E6FFF4" opacity="0.17"/><circle cx="824.9" cy="61.7" r="2.12" fill="#9BF0C8" opacity="0.70"/><circle cx="1063.4" cy="492.3" r="1.54" fill="#9BF0C8" opacity="0.19"/><circle cx="1215.0" cy="545.4" r="2.16" fill="#9BF0C8" opacity="0.47"/><circle cx="1303.1" cy="120.9" r="2.07" fill="#E6FFF4" opacity="0.31"/><circle cx="438.1" cy="328.5" r="1.61" fill="#E6FFF4" opacity="0.21"/><circle cx="1076.0" cy="570.7" r="2.27" fill="#E6FFF4" opacity="0.15"/><circle cx="1287.3" cy="850.9" r="2.00" fill="#E6FFF4" opacity="0.80"/><circle cx="640.6" cy="848.3" r="1.86" fill="#9BF0C8" opacity="0.26"/><circle cx="519.1" cy="835.6" r="1.23" fill="#E6FFF4" opacity="0.83"/><circle cx="1024.2" cy="167.0" r="2.12" fill="#9BF0C8" opacity="0.51"/><circle cx="965.3" cy="462.4" r="1.67" fill="#9BF0C8" opacity="0.18"/><circle cx="850.3" cy="752.1" r="1.78" fill="#9BF0C8" opacity="0.36"/><circle cx="453.1" cy="791.8" r="0.72" fill="#E6FFF4" opacity="0.53"/><circle cx="1336.5" cy="761.2" r="0.99" fill="#9BF0C8" opacity="0.33"/><circle cx="787.9" cy="545.9" r="1.96" fill="#9BF0C8" opacity="0.74"/><circle cx="406.5" cy="85.9" r="1.39" fill="#9BF0C8" opacity="0.84"/><circle cx="1331.0" cy="323.5" r="0.85" fill="#E6FFF4" opacity="0.34"/><circle cx="1187.6" cy="481.6" r="1.45" fill="#9BF0C8" opacity="0.52"/><circle cx="594.4" cy="521.5" r="2.49" fill="#9BF0C8" opacity="0.65"/><circle cx="1107.9" cy="395.7" r="1.18" fill="#9BF0C8" opacity="0.26"/><circle cx="1521.3" cy="386.7" r="0.99" fill="#9BF0C8" opacity="0.15"/><circle cx="518.9" cy="692.2" r="1.71" fill="#E6FFF4" opacity="0.35"/><circle cx="1292.2" cy="665.7" r="1.85" fill="#E6FFF4" opacity="0.19"/><circle cx="1157.9" cy="716.8" r="1.90" fill="#9BF0C8" opacity="0.25"/><circle cx="1023.9" cy="376.4" r="2.00" fill="#E6FFF4" opacity="0.37"/><circle cx="1439.4" cy="360.3" r="1.98" fill="#9BF0C8" opacity="0.68"/><circle cx="1219.7" cy="871.5" r="1.38" fill="#9BF0C8" opacity="0.81"/><circle cx="439.7" cy="346.8" r="0.91" fill="#9BF0C8" opacity="0.30"/><circle cx="837.9" cy="299.0" r="1.57" fill="#9BF0C8" opacity="0.57"/><circle cx="1094.4" cy="238.7" r="1.39" fill="#9BF0C8" opacity="0.35"/><circle cx="792.6" cy="844.6" r="2.42" fill="#9BF0C8" opacity="0.55"/><circle cx="1519.5" cy="638.3" r="0.72" fill="#9BF0C8" opacity="0.54"/><circle cx="1292.2" cy="217.0" r="1.97" fill="#9BF0C8" opacity="0.70"/><circle cx="573.5" cy="792.5" r="1.03" fill="#E6FFF4" opacity="0.52"/><circle cx="1479.3" cy="343.2" r="2.06" fill="#9BF0C8" opacity="0.75"/><circle cx="610.2" cy="637.7" r="1.60" fill="#9BF0C8" opacity="0.81"/><circle cx="561.8" cy="412.9" r="1.25" fill="#9BF0C8" opacity="0.76"/><circle cx="699.5" cy="874.9" r="1.17" fill="#9BF0C8" opacity="0.76"/><circle cx="1436.1" cy="469.1" r="1.16" fill="#9BF0C8" opacity="0.46"/><circle cx="807.0" cy="158.0" r="1.79" fill="#E6FFF4" opacity="0.69"/><circle cx="804.6" cy="563.7" r="0.75" fill="#9BF0C8" opacity="0.76"/><circle cx="786.6" cy="553.3" r="1.65" fill="#9BF0C8" opacity="0.18"/><circle cx="1467.0" cy="467.8" r="1.38" fill="#9BF0C8" opacity="0.67"/><circle cx="758.9" cy="434.5" r="1.85" fill="#9BF0C8" opacity="0.61"/><circle cx="1112.9" cy="182.8" r="0.94" fill="#9BF0C8" opacity="0.49"/><circle cx="1517.3" cy="591.0" r="0.78" fill="#E6FFF4" opacity="0.47"/><circle cx="445.1" cy="310.6" r="1.21" fill="#E6FFF4" opacity="0.54"/><circle cx="440.9" cy="567.9" r="1.31" fill="#9BF0C8" opacity="0.66"/><circle cx="1108.7" cy="389.1" r="1.72" fill="#9BF0C8" opacity="0.38"/><circle cx="1407.3" cy="542.6" r="1.65" fill="#9BF0C8" opacity="0.29"/><circle cx="1031.5" cy="820.3" r="0.94" fill="#E6FFF4" opacity="0.46"/><circle cx="500.3" cy="248.3" r="0.72" fill="#E6FFF4" opacity="0.52"/><circle cx="368.5" cy="392.5" r="0.81" fill="#9BF0C8" opacity="0.38"/><circle cx="1077.7" cy="708.9" r="1.32" fill="#9BF0C8" opacity="0.15"/><circle cx="1185.1" cy="661.8" r="1.12" fill="#9BF0C8" opacity="0.68"/><circle cx="724.2" cy="89.2" r="2.46" fill="#9BF0C8" opacity="0.41"/><circle cx="679.6" cy="350.6" r="1.35" fill="#9BF0C8" opacity="0.32"/><circle cx="1263.6" cy="851.2" r="2.10" fill="#E6FFF4" opacity="0.42"/><circle cx="1415.6" cy="238.9" r="1.09" fill="#9BF0C8" opacity="0.45"/><circle cx="1233.0" cy="806.8" r="1.81" fill="#9BF0C8" opacity="0.16"/><circle cx="870.3" cy="404.4" r="2.08" fill="#E6FFF4" opacity="0.78"/></g><g data-layer="Horizon · atmosphere"><ellipse cx="960" cy="900" rx="700" ry="294" fill="url(#n16-rg11)"/></g><g data-layer="Horizon · planet"><circle cx="960" cy="2600" r="1700" fill="url(#n16-rg9)"/></g><g data-layer="Horizon · rim glow"><g filter="url(#n16-bl12)"><circle cx="960" cy="2600" r="1700" fill="none" stroke="url(#n16-lg10)" stroke-width="18"/></g></g><g data-layer="Horizon · rim light"><circle cx="960" cy="2600" r="1700" fill="none" stroke="url(#n16-lg10)" stroke-width="2.5"/></g><g data-layer="Logo glow"><g filter="url(#n16-bl14)"><ellipse cx="960" cy="450" rx="316.00800000000004" ry="96" fill="url(#n16-rg13)"/></g></g><g data-layer="brew mark"><g filter="url(#n16-bl15)" opacity="0.9"><path d="M734.28 418.8V390H763.0799999999999M825.48 390H854.28V418.8M854.28 481.2V510H825.48M763.0799999999999 510H734.28V481.2" fill="none" stroke="#3EAF75" stroke-width="7.199999999999999" stroke-linecap="square"/><text x="794.28" y="476.4" font-family="Bricolage Grotesque" font-size="79.2" font-weight="800" fill="#3EAF75" text-anchor="middle">e</text></g><path d="M734.28 418.8V390H763.0799999999999M825.48 390H854.28V418.8M854.28 481.2V510H825.48M763.0799999999999 510H734.28V481.2" fill="none" stroke="#3EAF75" stroke-width="7.199999999999999" stroke-linecap="square"/><text x="794.28" y="476.4" font-family="Bricolage Grotesque" font-size="79.2" font-weight="800" fill="#3EAF75" text-anchor="middle">e</text></g><g data-layer="brew wordmark"><text x="892.68" y="490.8" font-family="Bricolage Grotesque" font-size="120" font-weight="800" fill="#F2F2F0" letter-spacing="-3.5999999999999996"><tspan>br</tspan><tspan fill="#3EAF75">e</tspan><tspan>w</tspan></text></g><g data-layer="Text · Your first video is free."><text x="960" y="590" font-family="Archivo" font-size="34" font-weight="500" fill="url(#n16-lg16)" text-anchor="middle" letter-spacing="-0.68">Your first video is free.</text></g><g data-layer="Text · scalewithbrew.com"><text x="960" y="640" font-family="IBM Plex Mono" font-size="18" font-weight="400" fill="#9BF0C8" text-anchor="middle" letter-spacing="1.5">scalewithbrew.com</text></g><text x="48" y="1044" font-family="IBM Plex Mono" font-size="13" font-weight="500" fill="#4E5A55" letter-spacing="2">V4 · SHOT 16 — END CARD</text><text x="1872" y="1044" font-family="IBM Plex Mono" font-size="13" font-weight="500" fill="#4E5A55" text-anchor="end" letter-spacing="2">0:26.2 · 3.8 S · LOGO</text></svg>
