<?xml version="1.0" encoding="UTF-8"?>
<svg xmlns="http://www.w3.org/2000/svg" width="1920" height="1820" viewBox="0 0 1920 1820"><defs><pattern id="s17-dots0" width="32" height="32" patternUnits="userSpaceOnUse"><circle cx="16" cy="16" r="1.2" fill="#F2F2F0" fill-opacity="0.07"/></pattern><clipPath id="s17-panel"><rect width="1920" height="1080" rx="24"/></clipPath><pattern id="s18-dots0" width="32" height="32" patternUnits="userSpaceOnUse"><circle cx="16" cy="16" r="1.2" fill="#F2F2F0" fill-opacity="0.07"/></pattern><linearGradient id="s18-aur1" x1="0" y1="0" x2="0" y2="1"><stop offset="0" stop-color="#3EAF75" stop-opacity="0"/><stop offset="0.5" stop-color="#3EAF75" stop-opacity="0.096"/><stop offset="1" stop-color="#3EAF75" stop-opacity="0"/></linearGradient><clipPath id="s18-panel"><rect width="1920" height="1080" rx="24"/></clipPath><pattern id="s19-dots0" width="32" height="32" patternUnits="userSpaceOnUse"><circle cx="16" cy="16" r="1.2" fill="#F2F2F0" fill-opacity="0.07"/></pattern><clipPath id="s19-panel"><rect width="1920" height="1080" rx="24"/></clipPath><pattern id="s20-dots0" width="32" height="32" patternUnits="userSpaceOnUse"><circle cx="16" cy="16" r="1.2" fill="#F2F2F0" fill-opacity="0.07"/></pattern><clipPath id="s20-clip1"><rect x="874" y="214" width="872" height="478.25" rx="10"/></clipPath><clipPath id="s20-panel"><rect width="1920" height="1080" rx="24"/></clipPath></defs><rect x="0" y="0" width="1920" height="1820" fill="#0B0B0C"/><text x="80" y="74" font-family="Bricolage Grotesque" font-size="40" font-weight="800" fill="#F2F2F0" letter-spacing="-1"><tspan>br</tspan><tspan fill="#3EAF75">e</tspan><tspan>w</tspan></text><text x="200" y="68" font-family="IBM Plex Mono" font-size="14" font-weight="500" fill="#8A8A91" letter-spacing="3">LAUNCH FILM · STORYBOARD V1</text><text x="1840" y="68" font-family="IBM Plex Mono" font-size="14" font-weight="500" fill="#8A8A91" text-anchor="end" letter-spacing="3">FRAMES 17–20   08</text><line x1="80" y1="104" x2="1840" y2="104" stroke="#35353C" stroke-width="1"/><g transform="translate(80 140) scale(0.4375)"><g clip-path="url(#s17-panel)"><rect x="0" y="0" width="1920" height="1080" fill="#0B0B0C"/><rect x="0" y="0" width="1920" height="1080" fill="url(#s17-dots0)"/><text x="160" y="200" font-family="IBM Plex Mono" font-size="16" font-weight="500" fill="#3EAF75" letter-spacing="3">REVIEW · 15-POINT LIST</text><text x="1760" y="210" font-family="IBM Plex Mono" font-size="44" font-weight="500" fill="#3EAF75" text-anchor="end">15 / 15</text><line x1="160" y1="320" x2="920" y2="320" stroke="#26262B" stroke-width="1"/><circle cx="178" cy="290" r="14" fill="#3EAF75"/><path d="M172.12 290.28L176.6 294.76L184.3 285.8" fill="none" stroke="#0B0B0C" stroke-width="2.8000000000000003" stroke-linecap="round" stroke-linejoin="round"/><text x="212" y="299" font-family="Archivo" font-size="28" font-weight="400" fill="#B4B4B8">Named people match the narration</text><text x="920" y="298" font-family="IBM Plex Mono" font-size="14" font-weight="400" fill="#8A8A91" text-anchor="end">01</text><line x1="160" y1="406" x2="920" y2="406" stroke="#26262B" stroke-width="1"/><circle cx="178" cy="376" r="14" fill="#3EAF75"/><path d="M172.12 376.28L176.6 380.76L184.3 371.8" fill="none" stroke="#0B0B0C" stroke-width="2.8000000000000003" stroke-linecap="round" stroke-linejoin="round"/><text x="212" y="385" font-family="Archivo" font-size="28" font-weight="400" fill="#B4B4B8">Places dated and sourced</text><text x="920" y="384" font-family="IBM Plex Mono" font-size="14" font-weight="400" fill="#8A8A91" text-anchor="end">02</text><line x1="160" y1="492" x2="920" y2="492" stroke="#26262B" stroke-width="1"/><circle cx="178" cy="462" r="14" fill="#3EAF75"/><path d="M172.12 462.28L176.6 466.76L184.3 457.8" fill="none" stroke="#0B0B0C" stroke-width="2.8000000000000003" stroke-linecap="round" stroke-linejoin="round"/><text x="212" y="471" font-family="Archivo" font-size="28" font-weight="400" fill="#B4B4B8">Numbers legible on pause</text><text x="920" y="470" font-family="IBM Plex Mono" font-size="14" font-weight="400" fill="#8A8A91" text-anchor="end">03</text><line x1="160" y1="578" x2="920" y2="578" stroke="#26262B" stroke-width="1"/><circle cx="178" cy="548" r="14" fill="#3EAF75"/><path d="M172.12 548.28L176.6 552.76L184.3 543.8" fill="none" stroke="#0B0B0C" stroke-width="2.8000000000000003" stroke-linecap="round" stroke-linejoin="round"/><text x="212" y="557" font-family="Archivo" font-size="28" font-weight="400" fill="#B4B4B8">Spelling on screen</text><text x="920" y="556" font-family="IBM Plex Mono" font-size="14" font-weight="400" fill="#8A8A91" text-anchor="end">04</text><line x1="160" y1="664" x2="920" y2="664" stroke="#26262B" stroke-width="1"/><circle cx="178" cy="634" r="14" fill="#3EAF75"/><path d="M172.12 634.28L176.6 638.76L184.3 629.8" fill="none" stroke="#0B0B0C" stroke-width="2.8000000000000003" stroke-linecap="round" stroke-linejoin="round"/><text x="212" y="643" font-family="Archivo" font-size="28" font-weight="400" fill="#B4B4B8">Voice matches the script</text><text x="920" y="642" font-family="IBM Plex Mono" font-size="14" font-weight="400" fill="#8A8A91" text-anchor="end">05</text><line x1="160" y1="750" x2="920" y2="750" stroke="#26262B" stroke-width="1"/><circle cx="178" cy="720" r="14" fill="#3EAF75"/><path d="M172.12 720.28L176.6 724.76L184.3 715.8" fill="none" stroke="#0B0B0C" stroke-width="2.8000000000000003" stroke-linecap="round" stroke-linejoin="round"/><text x="212" y="729" font-family="Archivo" font-size="28" font-weight="400" fill="#B4B4B8">Audio levels</text><text x="920" y="728" font-family="IBM Plex Mono" font-size="14" font-weight="400" fill="#8A8A91" text-anchor="end">06</text><line x1="160" y1="836" x2="920" y2="836" stroke="#26262B" stroke-width="1"/><circle cx="178" cy="806" r="14" fill="#3EAF75"/><path d="M172.12 806.28L176.6 810.76L184.3 801.8" fill="none" stroke="#0B0B0C" stroke-width="2.8000000000000003" stroke-linecap="round" stroke-linejoin="round"/><text x="212" y="815" font-family="Archivo" font-size="28" font-weight="400" fill="#B4B4B8">Music sits under the voice</text><text x="920" y="814" font-family="IBM Plex Mono" font-size="14" font-weight="400" fill="#8A8A91" text-anchor="end">07</text><line x1="160" y1="922" x2="920" y2="922" stroke="#26262B" stroke-width="1"/><circle cx="178" cy="892" r="14" fill="#3EAF75"/><path d="M172.12 892.28L176.6 896.76L184.3 887.8" fill="none" stroke="#0B0B0C" stroke-width="2.8000000000000003" stroke-linecap="round" stroke-linejoin="round"/><text x="212" y="901" font-family="Archivo" font-size="28" font-weight="400" fill="#B4B4B8">Pacing holds attention</text><text x="920" y="900" font-family="IBM Plex Mono" font-size="14" font-weight="400" fill="#8A8A91" text-anchor="end">08</text><line x1="980" y1="320" x2="1740" y2="320" stroke="#26262B" stroke-width="1"/><circle cx="998" cy="290" r="14" fill="#3EAF75"/><path d="M992.12 290.28L996.6 294.76L1004.3 285.8" fill="none" stroke="#0B0B0C" stroke-width="2.8000000000000003" stroke-linecap="round" stroke-linejoin="round"/><text x="1032" y="299" font-family="Archivo" font-size="28" font-weight="400" fill="#B4B4B8">Cuts land on the beat</text><text x="1740" y="298" font-family="IBM Plex Mono" font-size="14" font-weight="400" fill="#8A8A91" text-anchor="end">09</text><line x1="980" y1="406" x2="1740" y2="406" stroke="#26262B" stroke-width="1"/><circle cx="998" cy="376" r="14" fill="#3EAF75"/><path d="M992.12 376.28L996.6 380.76L1004.3 371.8" fill="none" stroke="#0B0B0C" stroke-width="2.8000000000000003" stroke-linecap="round" stroke-linejoin="round"/><text x="1032" y="385" font-family="Archivo" font-size="28" font-weight="400" fill="#B4B4B8">Continuity</text><text x="1740" y="384" font-family="IBM Plex Mono" font-size="14" font-weight="400" fill="#8A8A91" text-anchor="end">10</text><line x1="980" y1="492" x2="1740" y2="492" stroke="#26262B" stroke-width="1"/><circle cx="998" cy="462" r="14" fill="#3EAF75"/><path d="M992.12 462.28L996.6 466.76L1004.3 457.8" fill="none" stroke="#0B0B0C" stroke-width="2.8000000000000003" stroke-linecap="round" stroke-linejoin="round"/><text x="1032" y="471" font-family="Archivo" font-size="28" font-weight="400" fill="#B4B4B8">Captions in sync</text><text x="1740" y="470" font-family="IBM Plex Mono" font-size="14" font-weight="400" fill="#8A8A91" text-anchor="end">11</text><line x1="980" y1="578" x2="1740" y2="578" stroke="#26262B" stroke-width="1"/><circle cx="998" cy="548" r="14" fill="#3EAF75"/><path d="M992.12 548.28L996.6 552.76L1004.3 543.8" fill="none" stroke="#0B0B0C" stroke-width="2.8000000000000003" stroke-linecap="round" stroke-linejoin="round"/><text x="1032" y="557" font-family="Archivo" font-size="28" font-weight="400" fill="#B4B4B8">Grade consistent</text><text x="1740" y="556" font-family="IBM Plex Mono" font-size="14" font-weight="400" fill="#8A8A91" text-anchor="end">12</text><line x1="980" y1="664" x2="1740" y2="664" stroke="#26262B" stroke-width="1"/><circle cx="998" cy="634" r="14" fill="#3EAF75"/><path d="M992.12 634.28L996.6 638.76L1004.3 629.8" fill="none" stroke="#0B0B0C" stroke-width="2.8000000000000003" stroke-linecap="round" stroke-linejoin="round"/><text x="1032" y="643" font-family="Archivo" font-size="28" font-weight="400" fill="#B4B4B8">No stock under a real name</text><text x="1740" y="642" font-family="IBM Plex Mono" font-size="14" font-weight="400" fill="#8A8A91" text-anchor="end">13</text><line x1="980" y1="750" x2="1740" y2="750" stroke="#26262B" stroke-width="1"/><circle cx="998" cy="720" r="14" fill="#3EAF75"/><path d="M992.12 720.28L996.6 724.76L1004.3 715.8" fill="none" stroke="#0B0B0C" stroke-width="2.8000000000000003" stroke-linecap="round" stroke-linejoin="round"/><text x="1032" y="729" font-family="Archivo" font-size="28" font-weight="400" fill="#B4B4B8">Licences cleared</text><text x="1740" y="728" font-family="IBM Plex Mono" font-size="14" font-weight="400" fill="#8A8A91" text-anchor="end">14</text><line x1="980" y1="836" x2="1740" y2="836" stroke="#26262B" stroke-width="1"/><circle cx="998" cy="806" r="14" fill="#3EAF75"/><path d="M992.12 806.28L996.6 810.76L1004.3 801.8" fill="none" stroke="#0B0B0C" stroke-width="2.8000000000000003" stroke-linecap="round" stroke-linejoin="round"/><text x="1032" y="815" font-family="Archivo" font-size="28" font-weight="600" fill="#F2F2F0">Watched start to finish</text><text x="1740" y="814" font-family="IBM Plex Mono" font-size="14" font-weight="400" fill="#8A8A91" text-anchor="end">15</text><line x1="0" y1="46" x2="1920" y2="46" stroke="#35353C" stroke-width="1"/><line x1="24" y1="46" x2="24" y2="36" stroke="#35353C" stroke-width="1"/><line x1="120" y1="46" x2="120" y2="41" stroke="#35353C" stroke-width="1"/><line x1="216" y1="46" x2="216" y2="41" stroke="#35353C" stroke-width="1"/><line x1="312" y1="46" x2="312" y2="41" stroke="#35353C" stroke-width="1"/><line x1="408" y1="46" x2="408" y2="41" stroke="#35353C" stroke-width="1"/><line x1="504" y1="46" x2="504" y2="36" stroke="#35353C" stroke-width="1"/><line x1="600" y1="46" x2="600" y2="41" stroke="#35353C" stroke-width="1"/><line x1="696" y1="46" x2="696" y2="41" stroke="#35353C" stroke-width="1"/><line x1="792" y1="46" x2="792" y2="41" stroke="#35353C" stroke-width="1"/><line x1="888" y1="46" x2="888" y2="41" stroke="#35353C" stroke-width="1"/><line x1="984" y1="46" x2="984" y2="36" stroke="#35353C" stroke-width="1"/><line x1="1080" y1="46" x2="1080" y2="41" stroke="#35353C" stroke-width="1"/><line x1="1176" y1="46" x2="1176" y2="41" stroke="#35353C" stroke-width="1"/><line x1="1272" y1="46" x2="1272" y2="41" stroke="#35353C" stroke-width="1"/><line x1="1368" y1="46" x2="1368" y2="41" stroke="#35353C" stroke-width="1"/><line x1="1464" y1="46" x2="1464" y2="36" stroke="#35353C" stroke-width="1"/><line x1="1560" y1="46" x2="1560" y2="41" stroke="#35353C" stroke-width="1"/><line x1="1656" y1="46" x2="1656" y2="41" stroke="#35353C" stroke-width="1"/><line x1="1752" y1="46" x2="1752" y2="41" stroke="#35353C" stroke-width="1"/><line x1="1848" y1="46" x2="1848" y2="41" stroke="#35353C" stroke-width="1"/><line x1="830" y1="26" x2="830" y2="58" stroke="#3EAF75" stroke-width="2"/><polygon points="824,26 836,26 830,33" fill="#3EAF75"/><text x="24" y="26" font-family="IBM Plex Mono" font-size="13" font-weight="400" fill="#3EAF75" letter-spacing="1">00:00:31:00</text><text x="1896" y="26" font-family="IBM Plex Mono" font-size="13" font-weight="400" fill="#8A8A91" text-anchor="end" letter-spacing="1">00:01:12:00</text><text x="48" y="1044" font-family="IBM Plex Mono" font-size="13" font-weight="500" fill="#8A8A91" letter-spacing="2">SHOT 17 — FIFTEEN POINTS</text><text x="1872" y="1044" font-family="IBM Plex Mono" font-size="13" font-weight="500" fill="#8A8A91" text-anchor="end" letter-spacing="2">ACT IV · A PERSON WATCHES</text></g></g><rect x="80" y="140" width="840" height="472.5" rx="10" fill="none" stroke="#35353C" stroke-width="1"/><text x="80" y="656.5" font-family="IBM Plex Mono" font-size="26" font-weight="500" fill="#3EAF75">17</text><text x="132" y="656.5" font-family="Bricolage Grotesque" font-size="28" font-weight="700" fill="#F2F2F0" letter-spacing="-0.5">Fifteen points</text><text x="920" y="656.5" font-family="IBM Plex Mono" font-size="14" font-weight="400" fill="#8A8A91" text-anchor="end">00:00:31:00 · Act IV</text><text x="80" y="692.5" font-family="IBM Plex Mono" font-size="11" font-weight="500" fill="#8A8A91" letter-spacing="2">VISUAL</text><text x="170" y="692.5" font-family="Archivo" font-size="16" font-weight="400" fill="#B4B4B8">A clean checklist: the 15-point review. Items tick down two columns; counter reads 15</text><text x="170" y="714.5" font-family="Archivo" font-size="16" font-weight="400" fill="#B4B4B8">/ 15. (Item wording is placeholder: swap in brew's real list.)</text><text x="80" y="744.5" font-family="IBM Plex Mono" font-size="11" font-weight="500" fill="#8A8A91" letter-spacing="2">MOTION</text><text x="170" y="744.5" font-family="Archivo" font-size="16" font-weight="400" fill="#B4B4B8">Each row: check pops, text brightens from grey to white, 60ms stagger, accelerating</text><text x="170" y="766.5" font-family="Archivo" font-size="16" font-weight="400" fill="#B4B4B8">slightly toward the end.</text><text x="80" y="796.5" font-family="IBM Plex Mono" font-size="11" font-weight="500" fill="#3EAF75" letter-spacing="2">VO</text><text x="170" y="796.5" font-family="Archivo" font-size="16" font-weight="400" fill="#F2F2F0">&quot;Every frame, before you ever see it.&quot;</text><text x="80" y="826.5" font-family="IBM Plex Mono" font-size="11" font-weight="500" fill="#8A8A91" letter-spacing="2">SFX</text><text x="170" y="826.5" font-family="Archivo" font-size="16" font-weight="400" fill="#B4B4B8">A rhythm of soft ticks that resolves into a chord.</text><text x="80" y="856.5" font-family="IBM Plex Mono" font-size="11" font-weight="500" fill="#8A8A91" letter-spacing="2">NEXT</text><text x="170" y="856.5" font-family="Archivo" font-size="16" font-weight="400" fill="#B4B4B8">Checklist fades; super comes forward.</text><g transform="translate(1000 140) scale(0.4375)"><g clip-path="url(#s18-panel)"><rect x="0" y="0" width="1920" height="1080" fill="#0B0B0C"/><rect x="0" y="0" width="1920" height="1080" fill="url(#s18-dots0)"/><polygon points="180,0 300,0 -120,1080 -240,1080" fill="url(#s18-aur1)" opacity="0.9"/><polygon points="520,0 580,0 160,1080 100,1080" fill="url(#s18-aur1)" opacity="0.5"/><polygon points="980,0 1140,0 720,1080 560,1080" fill="url(#s18-aur1)" opacity="1"/><polygon points="1420,0 1500,0 1080,1080 1000,1080" fill="url(#s18-aur1)" opacity="0.6"/><polygon points="1760,0 1880,0 1460,1080 1340,1080" fill="url(#s18-aur1)" opacity="0.8"/><rect x="628" y="96" width="73" height="30" rx="15" fill="none" stroke="#35353C" stroke-width="1"/><text x="642" y="115.68" font-family="IBM Plex Mono" font-size="13" font-weight="500" fill="#B4B4B8" letter-spacing="1.5">TOPIC</text><rect x="711" y="96" width="100.9" height="30" rx="15" fill="none" stroke="#35353C" stroke-width="1"/><text x="725" y="115.68" font-family="IBM Plex Mono" font-size="13" font-weight="500" fill="#B4B4B8" letter-spacing="1.5">RESEARCH</text><rect x="821.9" y="96" width="82.30000000000001" height="30" rx="15" fill="none" stroke="#35353C" stroke-width="1"/><text x="835.9" y="115.68" font-family="IBM Plex Mono" font-size="13" font-weight="500" fill="#B4B4B8" letter-spacing="1.5">SCRIPT</text><rect x="914.2" y="96" width="73" height="30" rx="15" fill="none" stroke="#35353C" stroke-width="1"/><text x="928.2" y="115.68" font-family="IBM Plex Mono" font-size="13" font-weight="500" fill="#B4B4B8" letter-spacing="1.5">VOICE</text><rect x="997.2" y="96" width="63.7" height="30" rx="15" fill="none" stroke="#35353C" stroke-width="1"/><text x="1011.2" y="115.68" font-family="IBM Plex Mono" font-size="13" font-weight="500" fill="#B4B4B8" letter-spacing="1.5">EDIT</text><rect x="1070.9" y="96" width="100.9" height="30" rx="15" fill="none" stroke="#35353C" stroke-width="1"/><text x="1084.9" y="115.68" font-family="IBM Plex Mono" font-size="13" font-weight="500" fill="#B4B4B8" letter-spacing="1.5">REVIEWED</text><rect x="1181.8000000000002" y="96" width="110.2" height="30" rx="15" fill="#3EAF75" stroke="#3EAF75" stroke-width="1.2" fill-opacity="0.14"/><text x="1195.8000000000002" y="115.68" font-family="IBM Plex Mono" font-size="13" font-weight="500" fill="#3EAF75" letter-spacing="1.5">DELIVERED</text><text x="160" y="470" font-family="Bricolage Grotesque" font-size="150" font-weight="700" fill="#F2F2F0" letter-spacing="-5">Every frame</text><text x="160" y="620" font-family="Bricolage Grotesque" font-size="150" font-weight="700" fill="#F2F2F0" letter-spacing="-5">watched by a</text><text x="160" y="770" font-family="Bricolage Grotesque" font-size="150" font-weight="800" fill="#3EAF75" letter-spacing="-5">person.</text><path d="M140 674V640H174M666 640H700V674M700 776V810H666M174 810H140V776" fill="none" stroke="#3EAF75" stroke-width="6" stroke-linecap="square"/><line x1="0" y1="46" x2="1920" y2="46" stroke="#35353C" stroke-width="1"/><line x1="24" y1="46" x2="24" y2="36" stroke="#35353C" stroke-width="1"/><line x1="120" y1="46" x2="120" y2="41" stroke="#35353C" stroke-width="1"/><line x1="216" y1="46" x2="216" y2="41" stroke="#35353C" stroke-width="1"/><line x1="312" y1="46" x2="312" y2="41" stroke="#35353C" stroke-width="1"/><line x1="408" y1="46" x2="408" y2="41" stroke="#35353C" stroke-width="1"/><line x1="504" y1="46" x2="504" y2="36" stroke="#35353C" stroke-width="1"/><line x1="600" y1="46" x2="600" y2="41" stroke="#35353C" stroke-width="1"/><line x1="696" y1="46" x2="696" y2="41" stroke="#35353C" stroke-width="1"/><line x1="792" y1="46" x2="792" y2="41" stroke="#35353C" stroke-width="1"/><line x1="888" y1="46" x2="888" y2="41" stroke="#35353C" stroke-width="1"/><line x1="984" y1="46" x2="984" y2="36" stroke="#35353C" stroke-width="1"/><line x1="1080" y1="46" x2="1080" y2="41" stroke="#35353C" stroke-width="1"/><line x1="1176" y1="46" x2="1176" y2="41" stroke="#35353C" stroke-width="1"/><line x1="1272" y1="46" x2="1272" y2="41" stroke="#35353C" stroke-width="1"/><line x1="1368" y1="46" x2="1368" y2="41" stroke="#35353C" stroke-width="1"/><line x1="1464" y1="46" x2="1464" y2="36" stroke="#35353C" stroke-width="1"/><line x1="1560" y1="46" x2="1560" y2="41" stroke="#35353C" stroke-width="1"/><line x1="1656" y1="46" x2="1656" y2="41" stroke="#35353C" stroke-width="1"/><line x1="1752" y1="46" x2="1752" y2="41" stroke="#35353C" stroke-width="1"/><line x1="1848" y1="46" x2="1848" y2="41" stroke="#35353C" stroke-width="1"/><line x1="882" y1="26" x2="882" y2="58" stroke="#3EAF75" stroke-width="2"/><polygon points="876,26 888,26 882,33" fill="#3EAF75"/><text x="24" y="26" font-family="IBM Plex Mono" font-size="13" font-weight="400" fill="#3EAF75" letter-spacing="1">00:00:33:00</text><text x="1896" y="26" font-family="IBM Plex Mono" font-size="13" font-weight="400" fill="#8A8A91" text-anchor="end" letter-spacing="1">00:01:12:00</text><text x="48" y="1044" font-family="IBM Plex Mono" font-size="13" font-weight="500" fill="#8A8A91" letter-spacing="2">SHOT 18 — EVERY FRAME WATCHED BY A PERSON</text><text x="1872" y="1044" font-family="IBM Plex Mono" font-size="13" font-weight="500" fill="#8A8A91" text-anchor="end" letter-spacing="2">ACT IV · A PERSON WATCHES</text></g></g><rect x="1000" y="140" width="840" height="472.5" rx="10" fill="none" stroke="#35353C" stroke-width="1"/><text x="1000" y="656.5" font-family="IBM Plex Mono" font-size="26" font-weight="500" fill="#3EAF75">18</text><text x="1052" y="656.5" font-family="Bricolage Grotesque" font-size="28" font-weight="700" fill="#F2F2F0" letter-spacing="-0.5">Every frame watched by a person</text><text x="1840" y="656.5" font-family="IBM Plex Mono" font-size="14" font-weight="400" fill="#8A8A91" text-anchor="end">00:00:33:00 · Act IV</text><text x="1000" y="692.5" font-family="IBM Plex Mono" font-size="11" font-weight="500" fill="#8A8A91" letter-spacing="2">VISUAL</text><text x="1090" y="692.5" font-family="Archivo" font-size="16" font-weight="400" fill="#B4B4B8">Hero type, the site's own line: &quot;Every frame watched by a person.&quot; &quot;person&quot; in brand</text><text x="1090" y="714.5" font-family="Archivo" font-size="16" font-weight="400" fill="#B4B4B8">green, framed by small brackets. Pills: REVIEWED done, DELIVERED lights.</text><text x="1000" y="744.5" font-family="IBM Plex Mono" font-size="11" font-weight="500" fill="#8A8A91" letter-spacing="2">MOTION</text><text x="1090" y="744.5" font-family="Archivo" font-size="16" font-weight="400" fill="#B4B4B8">Words rise through a mask, 40ms stagger; the brackets snap around &quot;person&quot;. Speed</text><text x="1090" y="766.5" font-family="Archivo" font-size="16" font-weight="400" fill="#B4B4B8">returns to 100% on the cut out.</text><text x="1000" y="796.5" font-family="IBM Plex Mono" font-size="11" font-weight="500" fill="#3EAF75" letter-spacing="2">VO</text><text x="1090" y="796.5" font-family="Archivo" font-size="16" font-weight="400" fill="#F2F2F0">(VO rests; let the line read.)</text><text x="1000" y="826.5" font-family="IBM Plex Mono" font-size="11" font-weight="500" fill="#8A8A91" letter-spacing="2">SFX</text><text x="1090" y="826.5" font-family="Archivo" font-size="16" font-weight="400" fill="#B4B4B8">The brew signature note, full.</text><text x="1000" y="856.5" font-family="IBM Plex Mono" font-size="11" font-weight="500" fill="#8A8A91" letter-spacing="2">NEXT</text><text x="1090" y="856.5" font-family="Archivo" font-size="16" font-weight="400" fill="#B4B4B8">Whip-pan to amber: YouTube.</text><g transform="translate(80 980) scale(0.4375)"><g clip-path="url(#s19-panel)"><rect x="0" y="0" width="1920" height="1080" fill="#0B0B0C"/><rect x="0" y="0" width="1920" height="1080" fill="url(#s19-dots0)"/><rect x="160" y="170" width="102.2" height="26" rx="4" fill="none" stroke="#D9A441" stroke-width="1.2"/><text x="170" y="187.68" font-family="IBM Plex Mono" font-size="13" font-weight="500" fill="#D9A441" letter-spacing="1.5">WE RUN IT</text><text x="160" y="300" font-family="Bricolage Grotesque" font-size="72" font-weight="600" fill="#F2F2F0" letter-spacing="-2">YouTube videos, done for you.</text><text x="1760" y="300" font-family="IBM Plex Mono" font-size="72" font-weight="500" fill="#D9A441" text-anchor="end">60:00</text><rect x="160" y="540" width="1600" height="18" rx="9" fill="#26262B"/><rect x="160" y="540" width="1600" height="18" rx="9" fill="#D9A441"/><line x1="426.6666666666667" y1="520" x2="426.6666666666667" y2="578" stroke="#F2F2F0" stroke-width="2"/><text x="426.6666666666667" y="610" font-family="IBM Plex Mono" font-size="16" font-weight="400" fill="#B4B4B8" text-anchor="middle">10:00</text><line x1="693.3333333333334" y1="520" x2="693.3333333333334" y2="578" stroke="#F2F2F0" stroke-width="2"/><text x="693.3333333333334" y="610" font-family="IBM Plex Mono" font-size="16" font-weight="400" fill="#B4B4B8" text-anchor="middle">20:00</text><line x1="1226.6666666666667" y1="520" x2="1226.6666666666667" y2="578" stroke="#F2F2F0" stroke-width="2"/><text x="1226.6666666666667" y="610" font-family="IBM Plex Mono" font-size="16" font-weight="400" fill="#B4B4B8" text-anchor="middle">40:00</text><line x1="1760" y1="520" x2="1760" y2="578" stroke="#F2F2F0" stroke-width="2"/><text x="1760" y="610" font-family="IBM Plex Mono" font-size="16" font-weight="400" fill="#B4B4B8" text-anchor="end">60:00</text><line x1="260" y1="558" x2="260" y2="670" stroke="#35353C" stroke-width="1" stroke-dasharray="3 5"/><rect x="220" y="670" width="100.9" height="30" rx="15" fill="none" stroke="#35353C" stroke-width="1"/><text x="234" y="689.68" font-family="IBM Plex Mono" font-size="13" font-weight="500" fill="#B4B4B8" letter-spacing="1.5">IDEATION</text><line x1="456" y1="558" x2="456" y2="730" stroke="#35353C" stroke-width="1" stroke-dasharray="3 5"/><rect x="416" y="730" width="100.9" height="30" rx="15" fill="none" stroke="#35353C" stroke-width="1"/><text x="430" y="749.68" font-family="IBM Plex Mono" font-size="13" font-weight="500" fill="#B4B4B8" letter-spacing="1.5">RESEARCH</text><line x1="652" y1="558" x2="652" y2="670" stroke="#35353C" stroke-width="1" stroke-dasharray="3 5"/><rect x="612" y="670" width="82.30000000000001" height="30" rx="15" fill="none" stroke="#35353C" stroke-width="1"/><text x="626" y="689.68" font-family="IBM Plex Mono" font-size="13" font-weight="500" fill="#B4B4B8" letter-spacing="1.5">SCRIPT</text><line x1="848" y1="558" x2="848" y2="730" stroke="#35353C" stroke-width="1" stroke-dasharray="3 5"/><rect x="808" y="730" width="73" height="30" rx="15" fill="none" stroke="#35353C" stroke-width="1"/><text x="822" y="749.68" font-family="IBM Plex Mono" font-size="13" font-weight="500" fill="#B4B4B8" letter-spacing="1.5">VOICE</text><line x1="1044" y1="558" x2="1044" y2="670" stroke="#35353C" stroke-width="1" stroke-dasharray="3 5"/><rect x="1004" y="670" width="100.9" height="30" rx="15" fill="none" stroke="#35353C" stroke-width="1"/><text x="1018" y="689.68" font-family="IBM Plex Mono" font-size="13" font-weight="500" fill="#B4B4B8" letter-spacing="1.5">SOURCING</text><line x1="1240" y1="558" x2="1240" y2="730" stroke="#35353C" stroke-width="1" stroke-dasharray="3 5"/><rect x="1200" y="730" width="63.7" height="30" rx="15" fill="none" stroke="#35353C" stroke-width="1"/><text x="1214" y="749.68" font-family="IBM Plex Mono" font-size="13" font-weight="500" fill="#B4B4B8" letter-spacing="1.5">EDIT</text><line x1="1436" y1="558" x2="1436" y2="670" stroke="#35353C" stroke-width="1" stroke-dasharray="3 5"/><rect x="1396" y="670" width="73" height="30" rx="15" fill="none" stroke="#35353C" stroke-width="1"/><text x="1410" y="689.68" font-family="IBM Plex Mono" font-size="13" font-weight="500" fill="#B4B4B8" letter-spacing="1.5">GRADE</text><line x1="1632" y1="558" x2="1632" y2="730" stroke="#35353C" stroke-width="1" stroke-dasharray="3 5"/><rect x="1592" y="730" width="82.30000000000001" height="30" rx="15" fill="none" stroke="#35353C" stroke-width="1"/><text x="1606" y="749.68" font-family="IBM Plex Mono" font-size="13" font-weight="500" fill="#B4B4B8" letter-spacing="1.5">REVIEW</text><text x="160" y="920" font-family="IBM Plex Mono" font-size="15" font-weight="500" fill="#8A8A91" letter-spacing="2">THREE DAYS · TWO ROUNDS OF NOTES · NINE LANGUAGES FROM THE SAME EDIT</text><line x1="0" y1="46" x2="1920" y2="46" stroke="#35353C" stroke-width="1"/><line x1="24" y1="46" x2="24" y2="36" stroke="#35353C" stroke-width="1"/><line x1="120" y1="46" x2="120" y2="41" stroke="#35353C" stroke-width="1"/><line x1="216" y1="46" x2="216" y2="41" stroke="#35353C" stroke-width="1"/><line x1="312" y1="46" x2="312" y2="41" stroke="#35353C" stroke-width="1"/><line x1="408" y1="46" x2="408" y2="41" stroke="#35353C" stroke-width="1"/><line x1="504" y1="46" x2="504" y2="36" stroke="#35353C" stroke-width="1"/><line x1="600" y1="46" x2="600" y2="41" stroke="#35353C" stroke-width="1"/><line x1="696" y1="46" x2="696" y2="41" stroke="#35353C" stroke-width="1"/><line x1="792" y1="46" x2="792" y2="41" stroke="#35353C" stroke-width="1"/><line x1="888" y1="46" x2="888" y2="41" stroke="#35353C" stroke-width="1"/><line x1="984" y1="46" x2="984" y2="36" stroke="#35353C" stroke-width="1"/><line x1="1080" y1="46" x2="1080" y2="41" stroke="#35353C" stroke-width="1"/><line x1="1176" y1="46" x2="1176" y2="41" stroke="#35353C" stroke-width="1"/><line x1="1272" y1="46" x2="1272" y2="41" stroke="#35353C" stroke-width="1"/><line x1="1368" y1="46" x2="1368" y2="41" stroke="#35353C" stroke-width="1"/><line x1="1464" y1="46" x2="1464" y2="36" stroke="#35353C" stroke-width="1"/><line x1="1560" y1="46" x2="1560" y2="41" stroke="#35353C" stroke-width="1"/><line x1="1656" y1="46" x2="1656" y2="41" stroke="#35353C" stroke-width="1"/><line x1="1752" y1="46" x2="1752" y2="41" stroke="#35353C" stroke-width="1"/><line x1="1848" y1="46" x2="1848" y2="41" stroke="#35353C" stroke-width="1"/><line x1="921" y1="26" x2="921" y2="58" stroke="#3EAF75" stroke-width="2"/><polygon points="915,26 927,26 921,33" fill="#3EAF75"/><text x="24" y="26" font-family="IBM Plex Mono" font-size="13" font-weight="400" fill="#3EAF75" letter-spacing="1">00:00:34:12</text><text x="1896" y="26" font-family="IBM Plex Mono" font-size="13" font-weight="400" fill="#8A8A91" text-anchor="end" letter-spacing="1">00:01:12:00</text><text x="48" y="1044" font-family="IBM Plex Mono" font-size="13" font-weight="500" fill="#8A8A91" letter-spacing="2">SHOT 19 — YOUTUBE: UP TO SIXTY MINUTES</text><text x="1872" y="1044" font-family="IBM Plex Mono" font-size="13" font-weight="500" fill="#8A8A91" text-anchor="end" letter-spacing="2">ACT V · WHAT WE MAKE</text></g></g><rect x="80" y="980" width="840" height="472.5" rx="10" fill="none" stroke="#35353C" stroke-width="1"/><text x="80" y="1496.5" font-family="IBM Plex Mono" font-size="26" font-weight="500" fill="#3EAF75">19</text><text x="132" y="1496.5" font-family="Bricolage Grotesque" font-size="28" font-weight="700" fill="#F2F2F0" letter-spacing="-0.5">YouTube: up to sixty minutes</text><text x="920" y="1496.5" font-family="IBM Plex Mono" font-size="14" font-weight="400" fill="#8A8A91" text-anchor="end">00:00:34:12 · Act V</text><text x="80" y="1532.5" font-family="IBM Plex Mono" font-size="11" font-weight="500" fill="#8A8A91" letter-spacing="2">VISUAL</text><text x="170" y="1532.5" font-family="Archivo" font-size="16" font-weight="400" fill="#B4B4B8">Amber accent (the site's YouTube colour). A timeline bar grows across the frame while</text><text x="170" y="1554.5" font-family="Archivo" font-size="16" font-weight="400" fill="#B4B4B8">the counter rolls 10:00 → 20:00 → 40:00 → 60:00. Everything brew does hangs off it as</text><text x="170" y="1576.5" font-family="Archivo" font-size="16" font-weight="400" fill="#B4B4B8">tags.</text><text x="80" y="1606.5" font-family="IBM Plex Mono" font-size="11" font-weight="500" fill="#8A8A91" letter-spacing="2">MOTION</text><text x="170" y="1606.5" font-family="Archivo" font-size="16" font-weight="400" fill="#B4B4B8">Bar extends in 4 hits (one per milestone) with a slight overshoot each. Tags drop on</text><text x="170" y="1628.5" font-family="Archivo" font-size="16" font-weight="400" fill="#B4B4B8">strings and swing to rest.</text><text x="80" y="1658.5" font-family="IBM Plex Mono" font-size="11" font-weight="500" fill="#3EAF75" letter-spacing="2">VO</text><text x="170" y="1658.5" font-family="Archivo" font-size="16" font-weight="400" fill="#F2F2F0">&quot;Long-form YouTube, up to sixty minutes…&quot;</text><text x="80" y="1688.5" font-family="IBM Plex Mono" font-size="11" font-weight="500" fill="#8A8A91" letter-spacing="2">SFX</text><text x="170" y="1688.5" font-family="Archivo" font-size="16" font-weight="400" fill="#B4B4B8">Four rising &quot;stamp&quot; hits on the milestones.</text><text x="80" y="1718.5" font-family="IBM Plex Mono" font-size="11" font-weight="500" fill="#8A8A91" letter-spacing="2">NEXT</text><text x="170" y="1718.5" font-family="Archivo" font-size="16" font-weight="400" fill="#B4B4B8">Bar folds into a finished video card.</text><g transform="translate(1000 980) scale(0.4375)"><g clip-path="url(#s20-panel)"><rect x="0" y="0" width="1920" height="1080" fill="#0B0B0C"/><rect x="0" y="0" width="1920" height="1080" fill="url(#s20-dots0)"/><rect x="160" y="170" width="102.2" height="26" rx="4" fill="none" stroke="#D9A441" stroke-width="1.2"/><text x="170" y="187.68" font-family="IBM Plex Mono" font-size="13" font-weight="500" fill="#D9A441" letter-spacing="1.5">WE RUN IT</text><rect x="860" y="200" width="900" height="656.25" rx="18" fill="#131316" stroke="#35353C" stroke-width="1"/><g><g clip-path="url(#s20-clip1)"><rect x="874" y="214" width="872" height="478.25" fill="#DCDFD7"/><polygon points="874.0,477.0 1004.8,443.6 1135.6,414.9 1240.2,386.2 1310.0,371.8 1379.8,386.2 1484.4,357.5 1615.2,338.3 1746.0,357.5 1746.0,510.5 1615.2,491.4 1501.8,529.6 1414.6,567.9 1353.6,587.0 1292.6,548.8 1222.8,558.3 1135.6,596.6 1004.8,577.5 874.0,620.5" fill="#4DB37E"/><polygon points="1571.6,692.3 1658.8,558.3 1746.0,520.1 1746.0,692.3" fill="#4DB37E"/><ellipse cx="1336.16" cy="453.125" rx="39.24" ry="23.9125" fill="#BFD6D0"/><path d="M1310.0 379.0 C1336.2 429.2 1310.0 500.9 1366.7 575.1" fill="none" stroke="#1E2A22" stroke-width="3.488" stroke-linecap="round" stroke-dasharray="8.72 6.976"/><circle cx="1310" cy="378.99625" r="6.976" fill="#1E2A22"/><circle cx="1366.6799999999998" cy="575.07875" r="6.976" fill="#1E2A22"/><text x="1257.68" y="357.475" font-family="IBM Plex Mono" font-size="19.184" font-weight="500" fill="#1E2A22" letter-spacing="1.744">COLÓN</text></g><text x="906" y="513.875" font-family="Bricolage Grotesque" font-size="76.5" font-weight="800" fill="#111" letter-spacing="-3">PANAMA</text><text x="906" y="585.875" font-family="Bricolage Grotesque" font-size="76.5" font-weight="800" fill="#E2634A" letter-spacing="-3">RAN DRY</text></g><rect x="1640" y="642.25" width="92" height="32" rx="6" fill="#000" opacity="0.8"/><text x="1686" y="665.25" font-family="IBM Plex Mono" font-size="16" font-weight="500" fill="#F2F2F0" text-anchor="middle">58:24</text><text x="888" y="746.25" font-family="Archivo" font-size="26" font-weight="600" fill="#F2F2F0">Why the Panama Canal Ran Short of Water</text><text x="888" y="782.25" font-family="Archivo" font-size="18" font-weight="400" fill="#8A8A91">Ready to upload · Day 3 · Two rounds of notes included</text><rect x="888" y="806.25" width="96.8" height="25" rx="4" fill="#3EAF75" stroke="#3EAF75" stroke-width="1.2"/><text x="898" y="823.07" font-family="IBM Plex Mono" font-size="12" font-weight="500" fill="#0B0B0C" letter-spacing="1.5">DELIVERED</text><rect x="1010" y="806.25" width="192.5" height="25" rx="4" fill="none" stroke="#3EAF75" stroke-width="1.2"/><text x="1020" y="823.07" font-family="IBM Plex Mono" font-size="12" font-weight="500" fill="#3EAF75" letter-spacing="1.5">REVIEWED BY A PERSON</text><text x="160" y="470" font-family="Bricolage Grotesque" font-size="96" font-weight="700" fill="#F2F2F0" letter-spacing="-3">A file,</text><text x="160" y="570" font-family="Bricolage Grotesque" font-size="96" font-weight="700" fill="#F2F2F0" letter-spacing="-3">not a first</text><text x="160" y="670" font-family="Bricolage Grotesque" font-size="96" font-weight="700" fill="#F2F2F0" letter-spacing="-3">draft.</text><text x="160" y="800" font-family="IBM Plex Mono" font-size="15" font-weight="500" fill="#D9A441" letter-spacing="2">READY TO UPLOAD · DAY 3</text><line x1="0" y1="46" x2="1920" y2="46" stroke="#35353C" stroke-width="1"/><line x1="24" y1="46" x2="24" y2="36" stroke="#35353C" stroke-width="1"/><line x1="120" y1="46" x2="120" y2="41" stroke="#35353C" stroke-width="1"/><line x1="216" y1="46" x2="216" y2="41" stroke="#35353C" stroke-width="1"/><line x1="312" y1="46" x2="312" y2="41" stroke="#35353C" stroke-width="1"/><line x1="408" y1="46" x2="408" y2="41" stroke="#35353C" stroke-width="1"/><line x1="504" y1="46" x2="504" y2="36" stroke="#35353C" stroke-width="1"/><line x1="600" y1="46" x2="600" y2="41" stroke="#35353C" stroke-width="1"/><line x1="696" y1="46" x2="696" y2="41" stroke="#35353C" stroke-width="1"/><line x1="792" y1="46" x2="792" y2="41" stroke="#35353C" stroke-width="1"/><line x1="888" y1="46" x2="888" y2="41" stroke="#35353C" stroke-width="1"/><line x1="984" y1="46" x2="984" y2="36" stroke="#35353C" stroke-width="1"/><line x1="1080" y1="46" x2="1080" y2="41" stroke="#35353C" stroke-width="1"/><line x1="1176" y1="46" x2="1176" y2="41" stroke="#35353C" stroke-width="1"/><line x1="1272" y1="46" x2="1272" y2="41" stroke="#35353C" stroke-width="1"/><line x1="1368" y1="46" x2="1368" y2="41" stroke="#35353C" stroke-width="1"/><line x1="1464" y1="46" x2="1464" y2="36" stroke="#35353C" stroke-width="1"/><line x1="1560" y1="46" x2="1560" y2="41" stroke="#35353C" stroke-width="1"/><line x1="1656" y1="46" x2="1656" y2="41" stroke="#35353C" stroke-width="1"/><line x1="1752" y1="46" x2="1752" y2="41" stroke="#35353C" stroke-width="1"/><line x1="1848" y1="46" x2="1848" y2="41" stroke="#35353C" stroke-width="1"/><line x1="1051" y1="26" x2="1051" y2="58" stroke="#3EAF75" stroke-width="2"/><polygon points="1045,26 1057,26 1051,33" fill="#3EAF75"/><text x="24" y="26" font-family="IBM Plex Mono" font-size="13" font-weight="400" fill="#3EAF75" letter-spacing="1">00:00:39:12</text><text x="1896" y="26" font-family="IBM Plex Mono" font-size="13" font-weight="400" fill="#8A8A91" text-anchor="end" letter-spacing="1">00:01:12:00</text><text x="48" y="1044" font-family="IBM Plex Mono" font-size="13" font-weight="500" fill="#8A8A91" letter-spacing="2">SHOT 20 — A FILE, NOT A FIRST DRAFT</text><text x="1872" y="1044" font-family="IBM Plex Mono" font-size="13" font-weight="500" fill="#8A8A91" text-anchor="end" letter-spacing="2">ACT V · WHAT WE MAKE</text></g></g><rect x="1000" y="980" width="840" height="472.5" rx="10" fill="none" stroke="#35353C" stroke-width="1"/><text x="1000" y="1496.5" font-family="IBM Plex Mono" font-size="26" font-weight="500" fill="#3EAF75">20</text><text x="1052" y="1496.5" font-family="Bricolage Grotesque" font-size="28" font-weight="700" fill="#F2F2F0" letter-spacing="-0.5">A file, not a first draft</text><text x="1840" y="1496.5" font-family="IBM Plex Mono" font-size="14" font-weight="400" fill="#8A8A91" text-anchor="end">00:00:39:12 · Act V</text><text x="1000" y="1532.5" font-family="IBM Plex Mono" font-size="11" font-weight="500" fill="#8A8A91" letter-spacing="2">VISUAL</text><text x="1090" y="1532.5" font-family="Archivo" font-size="16" font-weight="400" fill="#B4B4B8">The timeline folds into a finished, brand-neutral video card: map thumbnail with</text><text x="1090" y="1554.5" font-family="Archivo" font-size="16" font-weight="400" fill="#B4B4B8">&quot;PANAMA RAN DRY&quot;, 58:24 badge, &quot;Ready to upload · Day 3&quot;. Super: &quot;A file, not a first</text><text x="1090" y="1576.5" font-family="Archivo" font-size="16" font-weight="400" fill="#B4B4B8">draft.&quot;</text><text x="1000" y="1606.5" font-family="IBM Plex Mono" font-size="11" font-weight="500" fill="#8A8A91" letter-spacing="2">MOTION</text><text x="1090" y="1606.5" font-family="Archivo" font-size="16" font-weight="400" fill="#B4B4B8">Card scales up from the bar; thumbnail parallax 8px. Delivered tag stamps in.</text><text x="1000" y="1636.5" font-family="IBM Plex Mono" font-size="11" font-weight="500" fill="#3EAF75" letter-spacing="2">VO</text><text x="1090" y="1636.5" font-family="Archivo" font-size="16" font-weight="400" fill="#F2F2F0">&quot;…three days, start to finish.&quot;</text><text x="1000" y="1666.5" font-family="IBM Plex Mono" font-size="11" font-weight="500" fill="#8A8A91" letter-spacing="2">SFX</text><text x="1090" y="1666.5" font-family="Archivo" font-size="16" font-weight="400" fill="#B4B4B8">Soft whoosh into a clean &quot;ding&quot;.</text><text x="1000" y="1696.5" font-family="IBM Plex Mono" font-size="11" font-weight="500" fill="#8A8A91" letter-spacing="2">NEXT</text><text x="1090" y="1696.5" font-family="Archivo" font-size="16" font-weight="400" fill="#B4B4B8">Hard cut to teal; the thumbnail's map dissolves into a prompt field.</text></svg>
