<?xml version="1.0" encoding="UTF-8"?>
<svg xmlns="http://www.w3.org/2000/svg" width="1920" height="1080" viewBox="0 0 1920 1080"><defs><pattern id="v14-dots0" width="32" height="32" patternUnits="userSpaceOnUse"><circle cx="16" cy="16" r="1.2" fill="#F2F2F0" fill-opacity="0.07"/></pattern><radialGradient id="v14-rg1" cx="0.5" cy="0.5" r="0.7"><stop offset="0" stop-color="#E2634A" stop-opacity="0.22"/><stop offset="1" stop-color="#E2634A" stop-opacity="0"/></radialGradient><clipPath id="v14-clip2"><rect x="140" y="330" width="230" height="408.8888888888889" rx="18.400000000000002"/></clipPath><linearGradient id="v14-gr3" x1="0" y1="0" x2="0" y2="1"><stop offset="0" stop-color="#4A3F3A" stop-opacity="1"/><stop offset="1" stop-color="#1E1A18" stop-opacity="1"/></linearGradient><clipPath id="v14-clip4"><rect x="430" y="260" width="290" height="515.5555555555555" rx="23.2"/></clipPath><linearGradient id="v14-gr5" x1="0" y1="0" x2="0" y2="1"><stop offset="0" stop-color="#3A4452" stop-opacity="1"/><stop offset="1" stop-color="#171B22" stop-opacity="1"/></linearGradient><clipPath id="v14-clip6"><rect x="790" y="170" width="340" height="604.4444444444445" rx="27.2"/></clipPath><linearGradient id="v14-gr7" x1="0" y1="0" x2="0" y2="1"><stop offset="0" stop-color="#4A3A4F" stop-opacity="1"/><stop offset="1" stop-color="#1B161E" stop-opacity="1"/></linearGradient><clipPath id="v14-clip8"><rect x="1200" y="260" width="290" height="515.5555555555555" rx="23.2"/></clipPath><linearGradient id="v14-gr9" x1="0" y1="0" x2="0" y2="1"><stop offset="0" stop-color="#3D4A40" stop-opacity="1"/><stop offset="1" stop-color="#161C18" stop-opacity="1"/></linearGradient><clipPath id="v14-clip10"><rect x="1550" y="330" width="230" height="408.8888888888889" rx="18.400000000000002"/></clipPath><linearGradient id="v14-gr11" x1="0" y1="0" x2="0" y2="1"><stop offset="0" stop-color="#4A3F3A" stop-opacity="1"/><stop offset="1" stop-color="#1E1A18" stop-opacity="1"/></linearGradient></defs><rect x="0" y="0" width="1920" height="1080" fill="#0B0B0C"/><rect x="0" y="0" width="1920" height="1080" fill="url(#v14-dots0)"/><ellipse cx="960" cy="620" rx="900" ry="300" fill="url(#v14-rg1)"/><rect x="80" y="80" width="195.20000000000002" height="26" rx="4" fill="none" stroke="#E2634A" stroke-width="1.2"/><text x="90" y="97.68" font-family="IBM Plex Mono" font-size="13" font-weight="500" fill="#E2634A" letter-spacing="1.5">WE RUN IT · UGC ADS</text><g opacity="0.4"><g clip-path="url(#v14-clip2)"><rect x="140" y="330" width="230" height="408.8888888888889" fill="url(#v14-gr3)"/><path d="M167.6 738.8888888888889 C172.2 632.5777777777778 209 583.5111111111112 255 583.5111111111112 C301 583.5111111111112 337.79999999999995 632.5777777777778 342.4 738.8888888888889 Z" fill="#7A8F6B"/><rect x="241.2" y="534.4444444444445" width="27.599999999999998" height="40.88888888888889" fill="#C99A7A"/><ellipse cx="255" cy="501.73333333333335" rx="36.800000000000004" ry="40.88888888888889" fill="#C99A7A"/><path d="M215.9 501.73333333333335 C211.3 436.31111111111113 298.7 436.31111111111113 294.1 501.73333333333335 C287.20000000000005 469.02222222222224 232 460.84444444444443 215.9 501.73333333333335 Z" fill="#2A1E16"/><rect x="282.6" y="599.8666666666667" width="23" height="65.42222222222223" rx="6" fill="#B5651D"/><rect x="286.05" y="587.6" width="16.1" height="14.311111111111114" rx="2" fill="#1A1A1A"/><rect x="153.8" y="344.31111111111113" width="202.4" height="3" rx="1.5" fill="#FFFFFF" opacity="0.35"/><rect x="153.8" y="344.31111111111113" width="80.96000000000001" height="3" rx="1.5" fill="#FFFFFF"/><rect x="153.8" y="354.53333333333336" width="71" height="23" rx="4" fill="#E2634A" stroke="#E2634A" stroke-width="1.2"/><text x="163.8" y="369.6333333333334" font-family="IBM Plex Mono" font-size="10" font-weight="500" fill="#0B0B0C" letter-spacing="1.5">HOOK 01</text><text x="356.2" y="362.7111111111111" font-family="IBM Plex Mono" font-size="8" font-weight="400" fill="#FFFFFF" text-anchor="end" letter-spacing="1" opacity="0.75">AI-GENERATED</text></g><rect x="140" y="330" width="230" height="408.8888888888889" rx="18.400000000000002" fill="none" stroke="#35353C" stroke-width="1.5"/></g><g opacity="0.65"><g clip-path="url(#v14-clip4)"><rect x="430" y="260" width="290" height="515.5555555555555" fill="url(#v14-gr5)"/><path d="M464.8 775.5555555555555 C470.6 641.5111111111112 517 579.6444444444444 575 579.6444444444444 C633 579.6444444444444 679.4 641.5111111111112 685.2 775.5555555555555 Z" fill="#D9A441"/><rect x="557.6" y="517.7777777777778" width="34.8" height="51.55555555555556" fill="#8D5E42"/><ellipse cx="575" cy="476.5333333333333" rx="46.4" ry="51.55555555555556" fill="#8D5E42"/><path d="M525.7 476.5333333333333 C519.9 394.0444444444445 630.1 394.0444444444445 624.3 476.5333333333333 C615.6 435.2888888888889 546 424.97777777777776 525.7 476.5333333333333 Z" fill="#1A1410"/><rect x="609.8" y="600.2666666666667" width="29" height="82.4888888888889" rx="6" fill="#B5651D"/><rect x="614.15" y="584.8" width="20.3" height="18.044444444444444" rx="2" fill="#1A1A1A"/><rect x="447.4" y="278.0444444444444" width="255.2" height="3" rx="1.5" fill="#FFFFFF" opacity="0.35"/><rect x="447.4" y="278.0444444444444" width="102.08" height="3" rx="1.5" fill="#FFFFFF"/><rect x="447.4" y="290.93333333333334" width="76.63733333333333" height="24.34222222222222" rx="4" fill="#E2634A" stroke="#E2634A" stroke-width="1.2"/><text x="457.4" y="307.1876444444444" font-family="IBM Plex Mono" font-size="11.34222222222222" font-weight="500" fill="#0B0B0C" letter-spacing="1.5">HOOK 02</text><text x="702.5999999999999" y="301.24444444444447" font-family="IBM Plex Mono" font-size="8.248888888888889" font-weight="400" fill="#FFFFFF" text-anchor="end" letter-spacing="1" opacity="0.75">AI-GENERATED</text></g><rect x="430" y="260" width="290" height="515.5555555555555" rx="23.2" fill="none" stroke="#35353C" stroke-width="1.5"/></g><g opacity="1"><g clip-path="url(#v14-clip6)"><rect x="790" y="170" width="340" height="604.4444444444445" fill="url(#v14-gr7)"/><path d="M830.8 774.4444444444445 C837.6 617.2888888888889 892 544.7555555555556 960 544.7555555555556 C1028 544.7555555555556 1082.4 617.2888888888889 1089.2 774.4444444444445 Z" fill="#3FB8C4"/><rect x="939.6" y="472.22222222222223" width="40.8" height="60.44444444444445" fill="#E0B394"/><ellipse cx="960" cy="423.8666666666667" rx="54.4" ry="60.44444444444445" fill="#E0B394"/><path d="M902.2 423.8666666666667 C895.4 327.15555555555557 1024.6 327.15555555555557 1017.8 423.8666666666667 C1007.6 375.5111111111111 926 363.4222222222222 902.2 423.8666666666667 Z" fill="#6B3A1E"/><rect x="1000.8" y="568.9333333333334" width="34" height="96.71111111111111" rx="6" fill="#B5651D"/><rect x="1005.9" y="550.8" width="23.8" height="21.15555555555556" rx="2" fill="#1A1A1A"/><rect x="813.8" y="641.4666666666667" width="292.4" height="42.31111111111112" rx="8" fill="#FFFFFF"/><text x="960" y="669.8755555555556" font-family="Archivo" font-size="20.551111111111112" font-weight="600" fill="#111" text-anchor="middle">okay this actually worked</text><rect x="810.4" y="191.15555555555557" width="299.2" height="3" rx="1.5" fill="#FFFFFF" opacity="0.35"/><rect x="810.4" y="191.15555555555557" width="119.68" height="3" rx="1.5" fill="#FFFFFF"/><rect x="810.4" y="206.26666666666665" width="84.85066666666665" height="26.297777777777778" rx="4" fill="#E2634A" stroke="#E2634A" stroke-width="1.2"/><text x="820.4" y="224.20275555555554" font-family="IBM Plex Mono" font-size="13.297777777777778" font-weight="500" fill="#0B0B0C" letter-spacing="1.5">DEMO 01</text><text x="1109.6" y="218.35555555555555" font-family="IBM Plex Mono" font-size="9.671111111111111" font-weight="400" fill="#FFFFFF" text-anchor="end" letter-spacing="1" opacity="0.75">AI-GENERATED</text></g><rect x="790" y="170" width="340" height="604.4444444444445" rx="27.2" fill="none" stroke="#35353C" stroke-width="1.5"/></g><g opacity="0.65"><g clip-path="url(#v14-clip8)"><rect x="1200" y="260" width="290" height="515.5555555555555" fill="url(#v14-gr9)"/><path d="M1234.8 775.5555555555555 C1240.6 641.5111111111112 1287 579.6444444444444 1345 579.6444444444444 C1403 579.6444444444444 1449.4 641.5111111111112 1455.2 775.5555555555555 Z" fill="#E2634A"/><rect x="1327.6" y="517.7777777777778" width="34.8" height="51.55555555555556" fill="#B07E5E"/><ellipse cx="1345" cy="476.5333333333333" rx="46.4" ry="51.55555555555556" fill="#B07E5E"/><path d="M1295.7 476.5333333333333 C1289.9 394.0444444444445 1400.1 394.0444444444445 1394.3 476.5333333333333 C1385.6 435.2888888888889 1316 424.97777777777776 1295.7 476.5333333333333 Z" fill="#222"/><rect x="1379.8" y="600.2666666666667" width="29" height="82.4888888888889" rx="6" fill="#B5651D"/><rect x="1384.15" y="584.8" width="20.3" height="18.044444444444444" rx="2" fill="#1A1A1A"/><rect x="1217.4" y="278.0444444444444" width="255.2" height="3" rx="1.5" fill="#FFFFFF" opacity="0.35"/><rect x="1217.4" y="278.0444444444444" width="102.08" height="3" rx="1.5" fill="#FFFFFF"/><rect x="1217.4" y="290.93333333333334" width="76.63733333333333" height="24.34222222222222" rx="4" fill="#E2634A" stroke="#E2634A" stroke-width="1.2"/><text x="1227.4" y="307.1876444444444" font-family="IBM Plex Mono" font-size="11.34222222222222" font-weight="500" fill="#0B0B0C" letter-spacing="1.5">HOOK 03</text><text x="1472.6" y="301.24444444444447" font-family="IBM Plex Mono" font-size="8.248888888888889" font-weight="400" fill="#FFFFFF" text-anchor="end" letter-spacing="1" opacity="0.75">AI-GENERATED</text></g><rect x="1200" y="260" width="290" height="515.5555555555555" rx="23.2" fill="none" stroke="#35353C" stroke-width="1.5"/></g><g opacity="0.4"><g clip-path="url(#v14-clip10)"><rect x="1550" y="330" width="230" height="408.8888888888889" fill="url(#v14-gr11)"/><path d="M1577.6 738.8888888888889 C1582.2 632.5777777777778 1619 583.5111111111112 1665 583.5111111111112 C1711 583.5111111111112 1747.8 632.5777777777778 1752.4 738.8888888888889 Z" fill="#7A8F6B"/><rect x="1651.2" y="534.4444444444445" width="27.599999999999998" height="40.88888888888889" fill="#C99A7A"/><ellipse cx="1665" cy="501.73333333333335" rx="36.800000000000004" ry="40.88888888888889" fill="#C99A7A"/><path d="M1625.9 501.73333333333335 C1621.3 436.31111111111113 1708.7 436.31111111111113 1704.1 501.73333333333335 C1697.2 469.02222222222224 1642 460.84444444444443 1625.9 501.73333333333335 Z" fill="#2A1E16"/><rect x="1692.6" y="599.8666666666667" width="23" height="65.42222222222223" rx="6" fill="#B5651D"/><rect x="1696.05" y="587.6" width="16.1" height="14.311111111111114" rx="2" fill="#1A1A1A"/><rect x="1563.8" y="344.31111111111113" width="202.4" height="3" rx="1.5" fill="#FFFFFF" opacity="0.35"/><rect x="1563.8" y="344.31111111111113" width="80.96000000000001" height="3" rx="1.5" fill="#FFFFFF"/><rect x="1563.8" y="354.53333333333336" width="63.5" height="23" rx="4" fill="#E2634A" stroke="#E2634A" stroke-width="1.2"/><text x="1573.8" y="369.6333333333334" font-family="IBM Plex Mono" font-size="10" font-weight="500" fill="#0B0B0C" letter-spacing="1.5">PAYOFF</text><text x="1766.2" y="362.7111111111111" font-family="IBM Plex Mono" font-size="8" font-weight="400" fill="#FFFFFF" text-anchor="end" letter-spacing="1" opacity="0.75">AI-GENERATED</text></g><rect x="1550" y="330" width="230" height="408.8888888888889" rx="18.400000000000002" fill="none" stroke="#35353C" stroke-width="1.5"/></g><text x="48" y="1044" font-family="IBM Plex Mono" font-size="13" font-weight="500" fill="#8A8A91" letter-spacing="2">V2 · SHOT 14 — UGC CAROUSEL</text><text x="1872" y="1044" font-family="IBM Plex Mono" font-size="13" font-weight="500" fill="#8A8A91" text-anchor="end" letter-spacing="2">0:39 · PROOF</text></svg>
