<?xml version="1.0" encoding="UTF-8"?>
<svg xmlns="http://www.w3.org/2000/svg" width="1920" height="1080" viewBox="0 0 1920 1080"><defs><radialGradient id="w11-rg0" cx="0.5" cy="0.5" r="0.5"><stop offset="0" stop-color="#3EAF75" stop-opacity="0.7"/><stop offset="1" stop-color="#3EAF75" stop-opacity="0"/></radialGradient><radialGradient id="w11-rg1" cx="0.5" cy="0.5" r="0.5"><stop offset="0" stop-color="#3FB8C4" stop-opacity="0.5"/><stop offset="1" stop-color="#3FB8C4" stop-opacity="0"/></radialGradient><radialGradient id="w11-rg2" cx="0.5" cy="0.5" r="0.5"><stop offset="0" stop-color="#FFFFFF" stop-opacity="1"/><stop offset="1" stop-color="#FFFFFF" stop-opacity="0"/></radialGradient><clipPath id="w11-clip3"><rect x="160" y="110" width="1600" height="860" rx="16"/></clipPath><filter id="w11-blur4" x="-30%" y="-30%" width="160%" height="160%"><feGaussianBlur stdDeviation="22 22"/></filter></defs><g data-layer="Background · paper"><rect x="0" y="0" width="1920" height="1080" fill="#F4F4F1"/></g><g data-layer="Glow · green"><ellipse cx="1500" cy="1150" rx="1300" ry="620" fill="url(#w11-rg0)"/></g><g data-layer="Glow · teal"><ellipse cx="400" cy="1190" rx="900" ry="420" fill="url(#w11-rg1)"/></g><g data-layer="Glow · white"><ellipse cx="760" cy="360" rx="1100" ry="520" fill="url(#w11-rg2)"/></g><g data-layer="App window · New video"><g data-layer="App window"><g data-layer="Card"><g filter="url(#w11-blur4)"><rect x="166" y="128" width="1588" height="860" rx="16" fill="#0B0B0C" opacity="0.14"/></g><rect x="160" y="110" width="1600" height="860" rx="16" fill="#FFFFFF" stroke="#E3E3DE" stroke-width="1"/></g><g clip-path="url(#w11-clip3)"><rect x="160" y="110" width="1600" height="860" fill="#FFFFFF"/><rect x="160" y="110" width="1600" height="40" fill="#FAFAF8"/><line x1="160" y1="150" x2="1760" y2="150" stroke="#E3E3DE" stroke-width="1"/><circle cx="182" cy="130" r="5.5" fill="#D2D2CC"/><circle cx="200" cy="130" r="5.5" fill="#D2D2CC"/><circle cx="218" cy="130" r="5.5" fill="#D2D2CC"/><text x="960" y="135" font-family="IBM Plex Mono" font-size="12" font-weight="400" fill="#8A8A91" text-anchor="middle" letter-spacing="1">brew Studio</text><rect x="160" y="150" width="250" height="820" fill="#F8F8F6"/><line x1="410" y1="150" x2="410" y2="970" stroke="#E3E3DE" stroke-width="1"/><g data-layer="Brackets"><path d="M182 181V172H191M207 172H216V181M216 197V206H207M191 206H182V197" fill="none" stroke="#3EAF75" stroke-width="3" stroke-linecap="square"/></g><text x="199" y="196" font-family="Bricolage Grotesque" font-size="22" font-weight="800" fill="#3EAF75" text-anchor="middle">e</text><text x="228" y="198" font-family="Bricolage Grotesque" font-size="24" font-weight="800" fill="#0B0B0C" letter-spacing="-0.8"><tspan>br</tspan><tspan fill="#3EAF75">e</tspan><tspan>w</tspan></text><text x="184" y="254" font-family="IBM Plex Mono" font-size="10" font-weight="500" fill="#8A8A91" letter-spacing="2">WORKSPACE</text><rect x="172" y="266" width="226" height="34" rx="8" fill="#3EAF75" fill-opacity="0.12"/><circle cx="190" cy="283" r="4" fill="#3EAF75"/><text x="204" y="290" font-family="Archivo" font-size="15" font-weight="600" fill="#0B0B0C">New video</text><circle cx="190" cy="323" r="4" fill="#D2D2CC"/><text x="204" y="330" font-family="Archivo" font-size="15" font-weight="400" fill="#3A3A40">In production</text><circle cx="190" cy="363" r="4" fill="#D2D2CC"/><text x="204" y="370" font-family="Archivo" font-size="15" font-weight="400" fill="#3A3A40">Review</text><circle cx="190" cy="403" r="4" fill="#D2D2CC"/><text x="204" y="410" font-family="Archivo" font-size="15" font-weight="400" fill="#3A3A40">Library</text><circle cx="190" cy="443" r="4" fill="#D2D2CC"/><text x="204" y="450" font-family="Archivo" font-size="15" font-weight="400" fill="#3A3A40">Languages</text><circle cx="190" cy="483" r="4" fill="#D2D2CC"/><text x="204" y="490" font-family="Archivo" font-size="15" font-weight="400" fill="#3A3A40">AI b-roll</text><circle cx="190" cy="523" r="4" fill="#D2D2CC"/><text x="204" y="530" font-family="Archivo" font-size="15" font-weight="400" fill="#3A3A40">UGC ads</text><text x="450" y="202" font-family="IBM Plex Mono" font-size="11" font-weight="500" fill="#3EAF75" letter-spacing="2">NEW VIDEO</text><text x="450" y="248" font-family="Bricolage Grotesque" font-size="34" font-weight="700" fill="#0B0B0C" letter-spacing="-1">What should we make?</text><text x="450" y="278" font-family="Archivo" font-size="15" font-weight="400" fill="#8A8A91">A finished script, or one line about the idea. Both work.</text><rect x="450" y="306" width="1270" height="96" rx="12" fill="#FBFBF9" stroke="#3EAF75" stroke-width="1.5"/><text x="476" y="364" font-family="Archivo" font-size="24" font-weight="500" fill="#0B0B0C">Why the Panama Canal ran short of water</text><rect x="924.1759999999999" y="340" width="2.5" height="30" fill="#3EAF75"/><rect x="450" y="426" width="305.5" height="64" rx="10" fill="#F7F7F5" stroke="#E3E3DE" stroke-width="1"/><text x="464" y="450" font-family="IBM Plex Mono" font-size="10" font-weight="500" fill="#8A8A91" letter-spacing="2">LENGTH</text><text x="464" y="478" font-family="Archivo" font-size="16" font-weight="600" fill="#0B0B0C">10 min</text><rect x="767.5" y="426" width="305.5" height="64" rx="10" fill="#F7F7F5" stroke="#E3E3DE" stroke-width="1"/><text x="781.5" y="450" font-family="IBM Plex Mono" font-size="10" font-weight="500" fill="#8A8A91" letter-spacing="2">STYLE</text><text x="781.5" y="478" font-family="Archivo" font-size="16" font-weight="600" fill="#0B0B0C">Visual explainer</text><rect x="1085" y="426" width="305.5" height="64" rx="10" fill="#F7F7F5" stroke="#E3E3DE" stroke-width="1"/><text x="1099" y="450" font-family="IBM Plex Mono" font-size="10" font-weight="500" fill="#8A8A91" letter-spacing="2">VOICE</text><text x="1099" y="478" font-family="Archivo" font-size="16" font-weight="600" fill="#0B0B0C">Ours</text><rect x="1402.5" y="426" width="305.5" height="64" rx="10" fill="#F7F7F5" stroke="#E3E3DE" stroke-width="1"/><text x="1416.5" y="450" font-family="IBM Plex Mono" font-size="10" font-weight="500" fill="#8A8A91" letter-spacing="2">LANGUAGES</text><text x="1416.5" y="478" font-family="Archivo" font-size="16" font-weight="600" fill="#0B0B0C">9</text><g data-layer="Button · Send to brew  →"><rect x="1571.504" y="518" width="148.49599999999998" height="38" rx="8" fill="#3EAF75"/><text x="1589.504" y="540" font-family="Archivo" font-size="16" font-weight="600" fill="#FFF">Send to brew  →</text></g><text x="450" y="544" font-family="IBM Plex Mono" font-size="12" font-weight="400" fill="#8A8A91">First video free · up to ten minutes</text></g></g></g><g data-layer="Cursor"><path d="M0 0L0 30L8 23L13.5 35L18.5 32.8L13 21L23 21Z" fill="#F2F2F0" stroke="#0B0B0C" stroke-width="1.6" stroke-linejoin="round" transform="translate(1630 590) scale(1.6)"/></g><circle cx="1610" cy="575" r="40" fill="none" stroke="#3EAF75" stroke-width="2" opacity="0.5"/><text x="48" y="1044" font-family="IBM Plex Mono" font-size="13" font-weight="500" fill="#8A8A91" letter-spacing="2">V3 · SHOT 11 — ONE LINE IN</text><text x="1872" y="1044" font-family="IBM Plex Mono" font-size="13" font-weight="500" fill="#8A8A91" text-anchor="end" letter-spacing="2">0:22 · 2.5 S · WE MAKE IT</text></svg>
