<?xml version="1.0" encoding="UTF-8"?>
<svg xmlns="http://www.w3.org/2000/svg" width="1920" height="1820" viewBox="0 0 1920 1820"><defs><radialGradient id="w09-rg0" cx="0.5" cy="0.5" r="0.5"><stop offset="0" stop-color="#3EAF75" stop-opacity="0.9"/><stop offset="1" stop-color="#3EAF75" stop-opacity="0"/></radialGradient><radialGradient id="w09-rg1" cx="0.5" cy="0.5" r="0.5"><stop offset="0" stop-color="#3FB8C4" stop-opacity="0.7"/><stop offset="1" stop-color="#3FB8C4" stop-opacity="0"/></radialGradient><radialGradient id="w09-rg2" cx="0.5" cy="0.5" r="0.5"><stop offset="0" stop-color="#FFFFFF" stop-opacity="1"/><stop offset="1" stop-color="#FFFFFF" stop-opacity="0"/></radialGradient><clipPath id="w09-panel"><rect width="1920" height="1080" rx="24"/></clipPath><radialGradient id="w10-rg0" cx="0.5" cy="0.5" r="0.5"><stop offset="0" stop-color="#3EAF75" stop-opacity="1"/><stop offset="1" stop-color="#3EAF75" stop-opacity="0"/></radialGradient><radialGradient id="w10-rg1" cx="0.5" cy="0.5" r="0.5"><stop offset="0" stop-color="#3FB8C4" stop-opacity="0.8"/><stop offset="1" stop-color="#3FB8C4" stop-opacity="0"/></radialGradient><radialGradient id="w10-rg2" cx="0.5" cy="0.5" r="0.5"><stop offset="0" stop-color="#FFFFFF" stop-opacity="1"/><stop offset="1" stop-color="#FFFFFF" stop-opacity="0"/></radialGradient><clipPath id="w10-clip3"><rect x="300" y="230" width="1320" height="760" rx="16"/></clipPath><filter id="w10-blur4" x="-30%" y="-30%" width="160%" height="160%"><feGaussianBlur stdDeviation="22 22"/></filter><clipPath id="w10-panel"><rect width="1920" height="1080" rx="24"/></clipPath><radialGradient id="w11-rg0" cx="0.5" cy="0.5" r="0.5"><stop offset="0" stop-color="#3EAF75" stop-opacity="0.7"/><stop offset="1" stop-color="#3EAF75" stop-opacity="0"/></radialGradient><radialGradient id="w11-rg1" cx="0.5" cy="0.5" r="0.5"><stop offset="0" stop-color="#3FB8C4" stop-opacity="0.5"/><stop offset="1" stop-color="#3FB8C4" stop-opacity="0"/></radialGradient><radialGradient id="w11-rg2" cx="0.5" cy="0.5" r="0.5"><stop offset="0" stop-color="#FFFFFF" stop-opacity="1"/><stop offset="1" stop-color="#FFFFFF" stop-opacity="0"/></radialGradient><clipPath id="w11-clip3"><rect x="160" y="110" width="1600" height="860" rx="16"/></clipPath><filter id="w11-blur4" x="-30%" y="-30%" width="160%" height="160%"><feGaussianBlur stdDeviation="22 22"/></filter><clipPath id="w11-panel"><rect width="1920" height="1080" rx="24"/></clipPath><radialGradient id="w12-rg0" cx="0.5" cy="0.5" r="0.5"><stop offset="0" stop-color="#3EAF75" stop-opacity="0.7"/><stop offset="1" stop-color="#3EAF75" stop-opacity="0"/></radialGradient><radialGradient id="w12-rg1" cx="0.5" cy="0.5" r="0.5"><stop offset="0" stop-color="#3FB8C4" stop-opacity="0.5"/><stop offset="1" stop-color="#3FB8C4" stop-opacity="0"/></radialGradient><radialGradient id="w12-rg2" cx="0.5" cy="0.5" r="0.5"><stop offset="0" stop-color="#FFFFFF" stop-opacity="1"/><stop offset="1" stop-color="#FFFFFF" stop-opacity="0"/></radialGradient><clipPath id="w12-clip3"><rect x="160" y="110" width="1600" height="860" rx="16"/></clipPath><filter id="w12-blur4" x="-30%" y="-30%" width="160%" height="160%"><feGaussianBlur stdDeviation="22 22"/></filter><filter id="w12-blur5" x="-30%" y="-30%" width="160%" height="160%"><feGaussianBlur stdDeviation="16 16"/></filter><filter id="w12-blur6" x="-30%" y="-30%" width="160%" height="160%"><feGaussianBlur stdDeviation="22 22"/></filter><clipPath id="w12-panel"><rect width="1920" height="1080" rx="24"/></clipPath></defs><rect x="0" y="0" width="1920" height="1820" fill="#0B0B0C"/><text x="80" y="74" font-family="Bricolage Grotesque" font-size="40" font-weight="800" fill="#F2F2F0" letter-spacing="-1"><tspan>br</tspan><tspan fill="#3EAF75">e</tspan><tspan>w</tspan></text><text x="200" y="68" font-family="IBM Plex Mono" font-size="14" font-weight="500" fill="#8A8A91" letter-spacing="3">LAUNCH FILM · STORYBOARD V3 · LIGHT &amp; CALM CUT</text><text x="1840" y="68" font-family="IBM Plex Mono" font-size="14" font-weight="500" fill="#8A8A91" text-anchor="end" letter-spacing="3">SHOTS 9–12   05</text><line x1="80" y1="104" x2="1840" y2="104" stroke="#35353C" stroke-width="1"/><g transform="translate(80 140) scale(0.4375)"><g clip-path="url(#w09-panel)"><g data-layer="Background · paper"><rect x="0" y="0" width="1920" height="1080" fill="#F4F4F1"/></g><g data-layer="Glow · green"><ellipse cx="1500" cy="1080" rx="1300" ry="620" fill="url(#w09-rg0)"/></g><g data-layer="Glow · teal"><ellipse cx="400" cy="1120" rx="900" ry="420" fill="url(#w09-rg1)"/></g><g data-layer="Glow · white"><ellipse cx="760" cy="360" rx="1100" ry="520" fill="url(#w09-rg2)"/></g><g data-layer="Text · The AI-powered video studio,"><text x="342.7" y="560" font-family="Archivo" font-size="56" font-weight="500" fill="#0B0B0C">The AI-powered video studio, </text></g><g data-layer="Text · watched by people."><text x="1089.8" y="560" font-family="Archivo" font-size="56" font-weight="500" fill="#3EAF75">watched by people.</text></g><text x="48" y="1044" font-family="IBM Plex Mono" font-size="13" font-weight="500" fill="#8A8A91" letter-spacing="2">V3 · SHOT 09 — POSITIONING LINE</text><text x="1872" y="1044" font-family="IBM Plex Mono" font-size="13" font-weight="500" fill="#8A8A91" text-anchor="end" letter-spacing="2">0:16 · 3.0 S · MEET BREW</text></g></g><rect x="80" y="140" width="840" height="472.5" rx="10" fill="none" stroke="#35353C" stroke-width="1"/><text x="80" y="656.5" font-family="IBM Plex Mono" font-size="26" font-weight="500" fill="#3EAF75">09</text><text x="132" y="656.5" font-family="Bricolage Grotesque" font-size="26" font-weight="700" fill="#F2F2F0" letter-spacing="-0.5">Positioning line</text><text x="920" y="656.5" font-family="IBM Plex Mono" font-size="14" font-weight="400" fill="#8A8A91" text-anchor="end">0:16 · 3.0 s</text><text x="80" y="692.5" font-family="IBM Plex Mono" font-size="11" font-weight="500" fill="#8A8A91" letter-spacing="2">VISUAL</text><text x="170" y="692.5" font-family="Archivo" font-size="16" font-weight="400" fill="#B4B4B8">&quot;The AI-powered video studio, watched by people.&quot; &quot;watched by people&quot; in brew green.</text><text x="170" y="714.5" font-family="Archivo" font-size="16" font-weight="400" fill="#B4B4B8">Calm, centred, small.</text><text x="80" y="744.5" font-family="IBM Plex Mono" font-size="11" font-weight="500" fill="#8A8A91" letter-spacing="2">MOTION</text><text x="170" y="744.5" font-family="Archivo" font-size="16" font-weight="400" fill="#B4B4B8">Words fade-rise in 40 ms stagger; green words arrive last with a tiny glow pulse.</text><text x="80" y="774.5" font-family="IBM Plex Mono" font-size="11" font-weight="500" fill="#3EAF75" letter-spacing="2">VO</text><text x="170" y="774.5" font-family="Archivo" font-size="16" font-weight="400" fill="#F2F2F0">&quot;The AI-powered video studio, watched by people.&quot;</text><text x="80" y="804.5" font-family="IBM Plex Mono" font-size="11" font-weight="500" fill="#8A8A91" letter-spacing="2">SFX</text><text x="170" y="804.5" font-family="Archivo" font-size="16" font-weight="400" fill="#B4B4B8">Pad swells.</text><text x="80" y="834.5" font-family="IBM Plex Mono" font-size="11" font-weight="500" fill="#8A8A91" letter-spacing="2">NEXT</text><text x="170" y="834.5" font-family="Archivo" font-size="16" font-weight="400" fill="#B4B4B8">Camera tilts down into the product.</text><g transform="translate(1000 140) scale(0.4375)"><g clip-path="url(#w10-panel)"><g data-layer="Background · paper"><rect x="0" y="0" width="1920" height="1080" fill="#F4F4F1"/></g><g data-layer="Glow · green"><ellipse cx="1300" cy="1120" rx="1300" ry="620" fill="url(#w10-rg0)"/></g><g data-layer="Glow · teal"><ellipse cx="200" cy="1160" rx="900" ry="420" fill="url(#w10-rg1)"/></g><g data-layer="Glow · white"><ellipse cx="760" cy="360" rx="1100" ry="520" fill="url(#w10-rg2)"/></g><g transform="translate(960 600) skewY(-3.8500000000000005) skewX(9.9) scale(0.945 0.868) translate(-960 -600)"><g data-layer="App window · New video"><g data-layer="App window"><g data-layer="Card"><g filter="url(#w10-blur4)"><rect x="306" y="248" width="1308" height="760" rx="16" fill="#0B0B0C" opacity="0.14"/></g><rect x="300" y="230" width="1320" height="760" rx="16" fill="#FFFFFF" stroke="#E3E3DE" stroke-width="1"/></g><g clip-path="url(#w10-clip3)"><rect x="300" y="230" width="1320" height="760" fill="#FFFFFF"/><rect x="300" y="230" width="1320" height="40" fill="#FAFAF8"/><line x1="300" y1="270" x2="1620" y2="270" stroke="#E3E3DE" stroke-width="1"/><circle cx="322" cy="250" r="5.5" fill="#D2D2CC"/><circle cx="340" cy="250" r="5.5" fill="#D2D2CC"/><circle cx="358" cy="250" r="5.5" fill="#D2D2CC"/><text x="960" y="255" font-family="IBM Plex Mono" font-size="12" font-weight="400" fill="#8A8A91" text-anchor="middle" letter-spacing="1">brew Studio</text><rect x="300" y="270" width="250" height="720" fill="#F8F8F6"/><line x1="550" y1="270" x2="550" y2="990" stroke="#E3E3DE" stroke-width="1"/><g data-layer="Brackets"><path d="M322 301V292H331M347 292H356V301M356 317V326H347M331 326H322V317" fill="none" stroke="#3EAF75" stroke-width="3" stroke-linecap="square"/></g><text x="339" y="316" font-family="Bricolage Grotesque" font-size="22" font-weight="800" fill="#3EAF75" text-anchor="middle">e</text><text x="368" y="318" font-family="Bricolage Grotesque" font-size="24" font-weight="800" fill="#0B0B0C" letter-spacing="-0.8"><tspan>br</tspan><tspan fill="#3EAF75">e</tspan><tspan>w</tspan></text><text x="324" y="374" font-family="IBM Plex Mono" font-size="10" font-weight="500" fill="#8A8A91" letter-spacing="2">WORKSPACE</text><rect x="312" y="386" width="226" height="34" rx="8" fill="#3EAF75" fill-opacity="0.12"/><circle cx="330" cy="403" r="4" fill="#3EAF75"/><text x="344" y="410" font-family="Archivo" font-size="15" font-weight="600" fill="#0B0B0C">New video</text><circle cx="330" cy="443" r="4" fill="#D2D2CC"/><text x="344" y="450" font-family="Archivo" font-size="15" font-weight="400" fill="#3A3A40">In production</text><circle cx="330" cy="483" r="4" fill="#D2D2CC"/><text x="344" y="490" font-family="Archivo" font-size="15" font-weight="400" fill="#3A3A40">Review</text><circle cx="330" cy="523" r="4" fill="#D2D2CC"/><text x="344" y="530" font-family="Archivo" font-size="15" font-weight="400" fill="#3A3A40">Library</text><circle cx="330" cy="563" r="4" fill="#D2D2CC"/><text x="344" y="570" font-family="Archivo" font-size="15" font-weight="400" fill="#3A3A40">Languages</text><circle cx="330" cy="603" r="4" fill="#D2D2CC"/><text x="344" y="610" font-family="Archivo" font-size="15" font-weight="400" fill="#3A3A40">AI b-roll</text><circle cx="330" cy="643" r="4" fill="#D2D2CC"/><text x="344" y="650" font-family="Archivo" font-size="15" font-weight="400" fill="#3A3A40">UGC ads</text><text x="590" y="322" font-family="IBM Plex Mono" font-size="11" font-weight="500" fill="#3EAF75" letter-spacing="2">NEW VIDEO</text><text x="590" y="368" font-family="Bricolage Grotesque" font-size="34" font-weight="700" fill="#0B0B0C" letter-spacing="-1">What should we make?</text><text x="590" y="398" font-family="Archivo" font-size="15" font-weight="400" fill="#8A8A91">A finished script, or one line about the idea. Both work.</text><rect x="590" y="426" width="990" height="96" rx="12" fill="#FBFBF9" stroke="#3EAF75" stroke-width="1.5"/><text x="616" y="484" font-family="Archivo" font-size="24" font-weight="500" fill="#0B0B0C">Why the Panama Canal ran short of water</text><rect x="1064.176" y="460" width="2.5" height="30" fill="#3EAF75"/><rect x="590" y="546" width="235.5" height="64" rx="10" fill="#F7F7F5" stroke="#E3E3DE" stroke-width="1"/><text x="604" y="570" font-family="IBM Plex Mono" font-size="10" font-weight="500" fill="#8A8A91" letter-spacing="2">LENGTH</text><text x="604" y="598" font-family="Archivo" font-size="16" font-weight="600" fill="#0B0B0C">10 min</text><rect x="837.5" y="546" width="235.5" height="64" rx="10" fill="#F7F7F5" stroke="#E3E3DE" stroke-width="1"/><text x="851.5" y="570" font-family="IBM Plex Mono" font-size="10" font-weight="500" fill="#8A8A91" letter-spacing="2">STYLE</text><text x="851.5" y="598" font-family="Archivo" font-size="16" font-weight="600" fill="#0B0B0C">Visual explainer</text><rect x="1085" y="546" width="235.5" height="64" rx="10" fill="#F7F7F5" stroke="#E3E3DE" stroke-width="1"/><text x="1099" y="570" font-family="IBM Plex Mono" font-size="10" font-weight="500" fill="#8A8A91" letter-spacing="2">VOICE</text><text x="1099" y="598" font-family="Archivo" font-size="16" font-weight="600" fill="#0B0B0C">Ours</text><rect x="1332.5" y="546" width="235.5" height="64" rx="10" fill="#F7F7F5" stroke="#E3E3DE" stroke-width="1"/><text x="1346.5" y="570" font-family="IBM Plex Mono" font-size="10" font-weight="500" fill="#8A8A91" letter-spacing="2">LANGUAGES</text><text x="1346.5" y="598" font-family="Archivo" font-size="16" font-weight="600" fill="#0B0B0C">9</text><g data-layer="Button · Send to brew  →"><rect x="1431.504" y="638" width="148.49599999999998" height="38" rx="8" fill="#3EAF75"/><text x="1449.504" y="660" font-family="Archivo" font-size="16" font-weight="600" fill="#FFF">Send to brew  →</text></g><text x="590" y="664" font-family="IBM Plex Mono" font-size="12" font-weight="400" fill="#8A8A91">First video free · up to ten minutes</text></g></g></g></g><text x="1840" y="140" font-family="Archivo" font-size="40" font-weight="500" fill="#3EAF75" text-anchor="end">For channels that</text><text x="1840" y="190" font-family="Archivo" font-size="40" font-weight="500" fill="#3EAF75" text-anchor="end">post every week</text><text x="48" y="1044" font-family="IBM Plex Mono" font-size="13" font-weight="500" fill="#8A8A91" letter-spacing="2">V3 · SHOT 10 — PRODUCT REVEAL IN PERSPECTIVE</text><text x="1872" y="1044" font-family="IBM Plex Mono" font-size="13" font-weight="500" fill="#8A8A91" text-anchor="end" letter-spacing="2">0:19 · 3.0 S · MEET BREW</text></g></g><rect x="1000" y="140" width="840" height="472.5" rx="10" fill="none" stroke="#35353C" stroke-width="1"/><text x="1000" y="656.5" font-family="IBM Plex Mono" font-size="26" font-weight="500" fill="#3EAF75">10</text><text x="1052" y="656.5" font-family="Bricolage Grotesque" font-size="26" font-weight="700" fill="#F2F2F0" letter-spacing="-0.5">Product reveal in perspective</text><text x="1840" y="656.5" font-family="IBM Plex Mono" font-size="14" font-weight="400" fill="#8A8A91" text-anchor="end">0:19 · 3.0 s</text><text x="1000" y="692.5" font-family="IBM Plex Mono" font-size="11" font-weight="500" fill="#8A8A91" letter-spacing="2">VISUAL</text><text x="1090" y="692.5" font-family="Archivo" font-size="16" font-weight="400" fill="#B4B4B8">brew Studio (light theme) sweeps up in 3D perspective out of the glow. Top-right</text><text x="1090" y="714.5" font-family="Archivo" font-size="16" font-weight="400" fill="#B4B4B8">label: &quot;For channels that post every week&quot;.</text><text x="1000" y="744.5" font-family="IBM Plex Mono" font-size="11" font-weight="500" fill="#8A8A91" letter-spacing="2">MOTION</text><text x="1090" y="744.5" font-family="Archivo" font-size="16" font-weight="400" fill="#B4B4B8">Camera cranes down + rotates 18° → 6° over 2.5 s. Heavy depth of field on the window's</text><text x="1090" y="766.5" font-family="Archivo" font-size="16" font-weight="400" fill="#B4B4B8">far edge. Ref: the &quot;For Complex Operations&quot; reveal.</text><text x="1000" y="796.5" font-family="IBM Plex Mono" font-size="11" font-weight="500" fill="#3EAF75" letter-spacing="2">VO</text><text x="1090" y="796.5" font-family="Archivo" font-size="16" font-weight="400" fill="#F2F2F0">&quot;For channels that post every week.&quot;</text><text x="1000" y="826.5" font-family="IBM Plex Mono" font-size="11" font-weight="500" fill="#8A8A91" letter-spacing="2">SFX</text><text x="1090" y="826.5" font-family="Archivo" font-size="16" font-weight="400" fill="#B4B4B8">Air swell, glassy shimmer as the edge catches light.</text><text x="1000" y="856.5" font-family="IBM Plex Mono" font-size="11" font-weight="500" fill="#8A8A91" letter-spacing="2">NEXT</text><text x="1090" y="856.5" font-family="Archivo" font-size="16" font-weight="400" fill="#B4B4B8">Push into the New video form.</text><g transform="translate(80 980) scale(0.4375)"><g clip-path="url(#w11-panel)"><g data-layer="Background · paper"><rect x="0" y="0" width="1920" height="1080" fill="#F4F4F1"/></g><g data-layer="Glow · green"><ellipse cx="1500" cy="1150" rx="1300" ry="620" fill="url(#w11-rg0)"/></g><g data-layer="Glow · teal"><ellipse cx="400" cy="1190" rx="900" ry="420" fill="url(#w11-rg1)"/></g><g data-layer="Glow · white"><ellipse cx="760" cy="360" rx="1100" ry="520" fill="url(#w11-rg2)"/></g><g data-layer="App window · New video"><g data-layer="App window"><g data-layer="Card"><g filter="url(#w11-blur4)"><rect x="166" y="128" width="1588" height="860" rx="16" fill="#0B0B0C" opacity="0.14"/></g><rect x="160" y="110" width="1600" height="860" rx="16" fill="#FFFFFF" stroke="#E3E3DE" stroke-width="1"/></g><g clip-path="url(#w11-clip3)"><rect x="160" y="110" width="1600" height="860" fill="#FFFFFF"/><rect x="160" y="110" width="1600" height="40" fill="#FAFAF8"/><line x1="160" y1="150" x2="1760" y2="150" stroke="#E3E3DE" stroke-width="1"/><circle cx="182" cy="130" r="5.5" fill="#D2D2CC"/><circle cx="200" cy="130" r="5.5" fill="#D2D2CC"/><circle cx="218" cy="130" r="5.5" fill="#D2D2CC"/><text x="960" y="135" font-family="IBM Plex Mono" font-size="12" font-weight="400" fill="#8A8A91" text-anchor="middle" letter-spacing="1">brew Studio</text><rect x="160" y="150" width="250" height="820" fill="#F8F8F6"/><line x1="410" y1="150" x2="410" y2="970" stroke="#E3E3DE" stroke-width="1"/><g data-layer="Brackets"><path d="M182 181V172H191M207 172H216V181M216 197V206H207M191 206H182V197" fill="none" stroke="#3EAF75" stroke-width="3" stroke-linecap="square"/></g><text x="199" y="196" font-family="Bricolage Grotesque" font-size="22" font-weight="800" fill="#3EAF75" text-anchor="middle">e</text><text x="228" y="198" font-family="Bricolage Grotesque" font-size="24" font-weight="800" fill="#0B0B0C" letter-spacing="-0.8"><tspan>br</tspan><tspan fill="#3EAF75">e</tspan><tspan>w</tspan></text><text x="184" y="254" font-family="IBM Plex Mono" font-size="10" font-weight="500" fill="#8A8A91" letter-spacing="2">WORKSPACE</text><rect x="172" y="266" width="226" height="34" rx="8" fill="#3EAF75" fill-opacity="0.12"/><circle cx="190" cy="283" r="4" fill="#3EAF75"/><text x="204" y="290" font-family="Archivo" font-size="15" font-weight="600" fill="#0B0B0C">New video</text><circle cx="190" cy="323" r="4" fill="#D2D2CC"/><text x="204" y="330" font-family="Archivo" font-size="15" font-weight="400" fill="#3A3A40">In production</text><circle cx="190" cy="363" r="4" fill="#D2D2CC"/><text x="204" y="370" font-family="Archivo" font-size="15" font-weight="400" fill="#3A3A40">Review</text><circle cx="190" cy="403" r="4" fill="#D2D2CC"/><text x="204" y="410" font-family="Archivo" font-size="15" font-weight="400" fill="#3A3A40">Library</text><circle cx="190" cy="443" r="4" fill="#D2D2CC"/><text x="204" y="450" font-family="Archivo" font-size="15" font-weight="400" fill="#3A3A40">Languages</text><circle cx="190" cy="483" r="4" fill="#D2D2CC"/><text x="204" y="490" font-family="Archivo" font-size="15" font-weight="400" fill="#3A3A40">AI b-roll</text><circle cx="190" cy="523" r="4" fill="#D2D2CC"/><text x="204" y="530" font-family="Archivo" font-size="15" font-weight="400" fill="#3A3A40">UGC ads</text><text x="450" y="202" font-family="IBM Plex Mono" font-size="11" font-weight="500" fill="#3EAF75" letter-spacing="2">NEW VIDEO</text><text x="450" y="248" font-family="Bricolage Grotesque" font-size="34" font-weight="700" fill="#0B0B0C" letter-spacing="-1">What should we make?</text><text x="450" y="278" font-family="Archivo" font-size="15" font-weight="400" fill="#8A8A91">A finished script, or one line about the idea. Both work.</text><rect x="450" y="306" width="1270" height="96" rx="12" fill="#FBFBF9" stroke="#3EAF75" stroke-width="1.5"/><text x="476" y="364" font-family="Archivo" font-size="24" font-weight="500" fill="#0B0B0C">Why the Panama Canal ran short of water</text><rect x="924.1759999999999" y="340" width="2.5" height="30" fill="#3EAF75"/><rect x="450" y="426" width="305.5" height="64" rx="10" fill="#F7F7F5" stroke="#E3E3DE" stroke-width="1"/><text x="464" y="450" font-family="IBM Plex Mono" font-size="10" font-weight="500" fill="#8A8A91" letter-spacing="2">LENGTH</text><text x="464" y="478" font-family="Archivo" font-size="16" font-weight="600" fill="#0B0B0C">10 min</text><rect x="767.5" y="426" width="305.5" height="64" rx="10" fill="#F7F7F5" stroke="#E3E3DE" stroke-width="1"/><text x="781.5" y="450" font-family="IBM Plex Mono" font-size="10" font-weight="500" fill="#8A8A91" letter-spacing="2">STYLE</text><text x="781.5" y="478" font-family="Archivo" font-size="16" font-weight="600" fill="#0B0B0C">Visual explainer</text><rect x="1085" y="426" width="305.5" height="64" rx="10" fill="#F7F7F5" stroke="#E3E3DE" stroke-width="1"/><text x="1099" y="450" font-family="IBM Plex Mono" font-size="10" font-weight="500" fill="#8A8A91" letter-spacing="2">VOICE</text><text x="1099" y="478" font-family="Archivo" font-size="16" font-weight="600" fill="#0B0B0C">Ours</text><rect x="1402.5" y="426" width="305.5" height="64" rx="10" fill="#F7F7F5" stroke="#E3E3DE" stroke-width="1"/><text x="1416.5" y="450" font-family="IBM Plex Mono" font-size="10" font-weight="500" fill="#8A8A91" letter-spacing="2">LANGUAGES</text><text x="1416.5" y="478" font-family="Archivo" font-size="16" font-weight="600" fill="#0B0B0C">9</text><g data-layer="Button · Send to brew  →"><rect x="1571.504" y="518" width="148.49599999999998" height="38" rx="8" fill="#3EAF75"/><text x="1589.504" y="540" font-family="Archivo" font-size="16" font-weight="600" fill="#FFF">Send to brew  →</text></g><text x="450" y="544" font-family="IBM Plex Mono" font-size="12" font-weight="400" fill="#8A8A91">First video free · up to ten minutes</text></g></g></g><g data-layer="Cursor"><path d="M0 0L0 30L8 23L13.5 35L18.5 32.8L13 21L23 21Z" fill="#F2F2F0" stroke="#0B0B0C" stroke-width="1.6" stroke-linejoin="round" transform="translate(1630 590) scale(1.6)"/></g><circle cx="1610" cy="575" r="40" fill="none" stroke="#3EAF75" stroke-width="2" opacity="0.5"/><text x="48" y="1044" font-family="IBM Plex Mono" font-size="13" font-weight="500" fill="#8A8A91" letter-spacing="2">V3 · SHOT 11 — ONE LINE IN</text><text x="1872" y="1044" font-family="IBM Plex Mono" font-size="13" font-weight="500" fill="#8A8A91" text-anchor="end" letter-spacing="2">0:22 · 2.5 S · WE MAKE IT</text></g></g><rect x="80" y="980" width="840" height="472.5" rx="10" fill="none" stroke="#35353C" stroke-width="1"/><text x="80" y="1496.5" font-family="IBM Plex Mono" font-size="26" font-weight="500" fill="#3EAF75">11</text><text x="132" y="1496.5" font-family="Bricolage Grotesque" font-size="26" font-weight="700" fill="#F2F2F0" letter-spacing="-0.5">One line in</text><text x="920" y="1496.5" font-family="IBM Plex Mono" font-size="14" font-weight="400" fill="#8A8A91" text-anchor="end">0:22 · 2.5 s</text><text x="80" y="1532.5" font-family="IBM Plex Mono" font-size="11" font-weight="500" fill="#8A8A91" letter-spacing="2">VISUAL</text><text x="170" y="1532.5" font-family="Archivo" font-size="16" font-weight="400" fill="#B4B4B8">Straight-on New video screen. The topic &quot;Why the Panama Canal ran short of water&quot; is</text><text x="170" y="1554.5" font-family="Archivo" font-size="16" font-weight="400" fill="#B4B4B8">typed; the cursor clicks &quot;Send to brew&quot;.</text><text x="80" y="1584.5" font-family="IBM Plex Mono" font-size="11" font-weight="500" fill="#8A8A91" letter-spacing="2">MOTION</text><text x="170" y="1584.5" font-family="Archivo" font-size="16" font-weight="400" fill="#B4B4B8">Slow push 4%. Typing with caret. Click compresses the button 2 px; a green ring pulses</text><text x="170" y="1606.5" font-family="Archivo" font-size="16" font-weight="400" fill="#B4B4B8">out.</text><text x="80" y="1636.5" font-family="IBM Plex Mono" font-size="11" font-weight="500" fill="#3EAF75" letter-spacing="2">VO</text><text x="170" y="1636.5" font-family="Archivo" font-size="16" font-weight="400" fill="#F2F2F0">&quot;Send a topic, or a script.&quot;</text><text x="80" y="1666.5" font-family="IBM Plex Mono" font-size="11" font-weight="500" fill="#8A8A91" letter-spacing="2">SFX</text><text x="170" y="1666.5" font-family="Archivo" font-size="16" font-weight="400" fill="#B4B4B8">Keys; a crisp click.</text><text x="80" y="1696.5" font-family="IBM Plex Mono" font-size="11" font-weight="500" fill="#8A8A91" letter-spacing="2">NEXT</text><text x="170" y="1696.5" font-family="Archivo" font-size="16" font-weight="400" fill="#B4B4B8">The UI blurs away; the project card isolates into white space.</text><g transform="translate(1000 980) scale(0.4375)"><g clip-path="url(#w12-panel)"><g data-layer="Background · paper"><rect x="0" y="0" width="1920" height="1080" fill="#F4F4F1"/></g><g data-layer="Glow · green"><ellipse cx="1500" cy="1150" rx="1300" ry="620" fill="url(#w12-rg0)"/></g><g data-layer="Glow · teal"><ellipse cx="400" cy="1190" rx="900" ry="420" fill="url(#w12-rg1)"/></g><g data-layer="Glow · white"><ellipse cx="760" cy="360" rx="1100" ry="520" fill="url(#w12-rg2)"/></g><g filter="url(#w12-blur5)" opacity="0.55"><g data-layer="App window · In production"><g data-layer="App window"><g data-layer="Card"><g filter="url(#w12-blur4)"><rect x="166" y="128" width="1588" height="860" rx="16" fill="#0B0B0C" opacity="0.14"/></g><rect x="160" y="110" width="1600" height="860" rx="16" fill="#FFFFFF" stroke="#E3E3DE" stroke-width="1"/></g><g clip-path="url(#w12-clip3)"><rect x="160" y="110" width="1600" height="860" fill="#FFFFFF"/><rect x="160" y="110" width="1600" height="40" fill="#FAFAF8"/><line x1="160" y1="150" x2="1760" y2="150" stroke="#E3E3DE" stroke-width="1"/><circle cx="182" cy="130" r="5.5" fill="#D2D2CC"/><circle cx="200" cy="130" r="5.5" fill="#D2D2CC"/><circle cx="218" cy="130" r="5.5" fill="#D2D2CC"/><text x="960" y="135" font-family="IBM Plex Mono" font-size="12" font-weight="400" fill="#8A8A91" text-anchor="middle" letter-spacing="1">brew Studio</text><rect x="160" y="150" width="250" height="820" fill="#F8F8F6"/><line x1="410" y1="150" x2="410" y2="970" stroke="#E3E3DE" stroke-width="1"/><g data-layer="Brackets"><path d="M182 181V172H191M207 172H216V181M216 197V206H207M191 206H182V197" fill="none" stroke="#3EAF75" stroke-width="3" stroke-linecap="square"/></g><text x="199" y="196" font-family="Bricolage Grotesque" font-size="22" font-weight="800" fill="#3EAF75" text-anchor="middle">e</text><text x="228" y="198" font-family="Bricolage Grotesque" font-size="24" font-weight="800" fill="#0B0B0C" letter-spacing="-0.8"><tspan>br</tspan><tspan fill="#3EAF75">e</tspan><tspan>w</tspan></text><text x="184" y="254" font-family="IBM Plex Mono" font-size="10" font-weight="500" fill="#8A8A91" letter-spacing="2">WORKSPACE</text><circle cx="190" cy="283" r="4" fill="#D2D2CC"/><text x="204" y="290" font-family="Archivo" font-size="15" font-weight="400" fill="#3A3A40">New video</text><rect x="172" y="306" width="226" height="34" rx="8" fill="#3EAF75" fill-opacity="0.12"/><circle cx="190" cy="323" r="4" fill="#3EAF75"/><text x="204" y="330" font-family="Archivo" font-size="15" font-weight="600" fill="#0B0B0C">In production</text><circle cx="190" cy="363" r="4" fill="#D2D2CC"/><text x="204" y="370" font-family="Archivo" font-size="15" font-weight="400" fill="#3A3A40">Review</text><circle cx="190" cy="403" r="4" fill="#D2D2CC"/><text x="204" y="410" font-family="Archivo" font-size="15" font-weight="400" fill="#3A3A40">Library</text><circle cx="190" cy="443" r="4" fill="#D2D2CC"/><text x="204" y="450" font-family="Archivo" font-size="15" font-weight="400" fill="#3A3A40">Languages</text><circle cx="190" cy="483" r="4" fill="#D2D2CC"/><text x="204" y="490" font-family="Archivo" font-size="15" font-weight="400" fill="#3A3A40">AI b-roll</text><circle cx="190" cy="523" r="4" fill="#D2D2CC"/><text x="204" y="530" font-family="Archivo" font-size="15" font-weight="400" fill="#3A3A40">UGC ads</text><text x="450" y="202" font-family="IBM Plex Mono" font-size="11" font-weight="500" fill="#3EAF75" letter-spacing="2">NEW VIDEO</text><text x="450" y="248" font-family="Bricolage Grotesque" font-size="34" font-weight="700" fill="#0B0B0C" letter-spacing="-1">What should we make?</text><text x="450" y="278" font-family="Archivo" font-size="15" font-weight="400" fill="#8A8A91">A finished script, or one line about the idea. Both work.</text><rect x="450" y="306" width="1270" height="96" rx="12" fill="#FBFBF9" stroke="#3EAF75" stroke-width="1.5"/><text x="476" y="364" font-family="Archivo" font-size="24" font-weight="500" fill="#0B0B0C">Why the Panama Canal ran short of water</text><rect x="924.1759999999999" y="340" width="2.5" height="30" fill="#3EAF75"/><rect x="450" y="426" width="305.5" height="64" rx="10" fill="#F7F7F5" stroke="#E3E3DE" stroke-width="1"/><text x="464" y="450" font-family="IBM Plex Mono" font-size="10" font-weight="500" fill="#8A8A91" letter-spacing="2">LENGTH</text><text x="464" y="478" font-family="Archivo" font-size="16" font-weight="600" fill="#0B0B0C">10 min</text><rect x="767.5" y="426" width="305.5" height="64" rx="10" fill="#F7F7F5" stroke="#E3E3DE" stroke-width="1"/><text x="781.5" y="450" font-family="IBM Plex Mono" font-size="10" font-weight="500" fill="#8A8A91" letter-spacing="2">STYLE</text><text x="781.5" y="478" font-family="Archivo" font-size="16" font-weight="600" fill="#0B0B0C">Visual explainer</text><rect x="1085" y="426" width="305.5" height="64" rx="10" fill="#F7F7F5" stroke="#E3E3DE" stroke-width="1"/><text x="1099" y="450" font-family="IBM Plex Mono" font-size="10" font-weight="500" fill="#8A8A91" letter-spacing="2">VOICE</text><text x="1099" y="478" font-family="Archivo" font-size="16" font-weight="600" fill="#0B0B0C">Ours</text><rect x="1402.5" y="426" width="305.5" height="64" rx="10" fill="#F7F7F5" stroke="#E3E3DE" stroke-width="1"/><text x="1416.5" y="450" font-family="IBM Plex Mono" font-size="10" font-weight="500" fill="#8A8A91" letter-spacing="2">LANGUAGES</text><text x="1416.5" y="478" font-family="Archivo" font-size="16" font-weight="600" fill="#0B0B0C">9</text><g data-layer="Button · Send to brew  →"><rect x="1571.504" y="518" width="148.49599999999998" height="38" rx="8" fill="#3EAF75"/><text x="1589.504" y="540" font-family="Archivo" font-size="16" font-weight="600" fill="#FFF">Send to brew  →</text></g><text x="450" y="544" font-family="IBM Plex Mono" font-size="12" font-weight="400" fill="#8A8A91">First video free · up to ten minutes</text></g></g></g></g><g transform="translate(960 520) scale(1.45) translate(-380 -68)"><g data-layer="Card · project"><g data-layer="Card"><g filter="url(#w12-blur6)"><rect x="6" y="18" width="748" height="136" rx="14" fill="#0B0B0C" opacity="0.14"/></g><rect x="0" y="0" width="760" height="136" rx="14" fill="#FFFFFF" stroke="#E3E3DE" stroke-width="1"/></g><rect x="20" y="20" width="34" height="34" rx="8" fill="#4DB37E"/><g data-layer="Chip · #2041"><rect x="66" y="22" width="56" height="23" rx="5" fill="#8A8A91" fill-opacity="0.14"/><text x="75" y="36" font-family="IBM Plex Mono" font-size="11" font-weight="500" fill="#8A8A91" letter-spacing="1">#2041</text></g><g data-layer="Chip · YouTube"><rect x="136" y="22" width="71.2" height="23" rx="5" fill="#D9A441" fill-opacity="0.14"/><text x="145" y="36" font-family="IBM Plex Mono" font-size="11" font-weight="500" fill="#D9A441" letter-spacing="1">YOUTUBE</text></g><g data-layer="Chip · In production"><rect x="230" y="22" width="116.8" height="23" rx="5" fill="#3EAF75" fill-opacity="0.14"/><text x="239" y="36" font-family="IBM Plex Mono" font-size="11" font-weight="500" fill="#3EAF75" letter-spacing="1">IN PRODUCTION</text></g><text x="66" y="72" font-family="Archivo" font-size="17" font-weight="600" fill="#0B0B0C">Why the Panama Canal ran short of water</text><rect x="20" y="92" width="53" height="22" rx="11" fill="#3EAF75" stroke="#3EAF75" stroke-width="1" fill-opacity="0.14"/><text x="29" y="107" font-family="IBM Plex Mono" font-size="10" font-weight="500" fill="#3EAF75" letter-spacing="1">TOPIC</text><rect x="79" y="92" width="74" height="22" rx="11" fill="none" stroke="#D2D2CC" stroke-width="1"/><text x="88" y="107" font-family="IBM Plex Mono" font-size="10" font-weight="500" fill="#8A8A91" letter-spacing="1">RESEARCH</text><rect x="159" y="92" width="60" height="22" rx="11" fill="none" stroke="#D2D2CC" stroke-width="1"/><text x="168" y="107" font-family="IBM Plex Mono" font-size="10" font-weight="500" fill="#8A8A91" letter-spacing="1">SCRIPT</text><rect x="225" y="92" width="53" height="22" rx="11" fill="none" stroke="#D2D2CC" stroke-width="1"/><text x="234" y="107" font-family="IBM Plex Mono" font-size="10" font-weight="500" fill="#8A8A91" letter-spacing="1">VOICE</text><rect x="284" y="92" width="46" height="22" rx="11" fill="none" stroke="#D2D2CC" stroke-width="1"/><text x="293" y="107" font-family="IBM Plex Mono" font-size="10" font-weight="500" fill="#8A8A91" letter-spacing="1">EDIT</text><rect x="336" y="92" width="74" height="22" rx="11" fill="none" stroke="#D2D2CC" stroke-width="1"/><text x="345" y="107" font-family="IBM Plex Mono" font-size="10" font-weight="500" fill="#8A8A91" letter-spacing="1">REVIEWED</text><rect x="416" y="92" width="81" height="22" rx="11" fill="none" stroke="#D2D2CC" stroke-width="1"/><text x="425" y="107" font-family="IBM Plex Mono" font-size="10" font-weight="500" fill="#8A8A91" letter-spacing="1">DELIVERED</text></g></g><text x="48" y="1044" font-family="IBM Plex Mono" font-size="13" font-weight="500" fill="#8A8A91" letter-spacing="2">V3 · SHOT 12 — THE CARD ISOLATES</text><text x="1872" y="1044" font-family="IBM Plex Mono" font-size="13" font-weight="500" fill="#8A8A91" text-anchor="end" letter-spacing="2">0:24 · 2.0 S · WE MAKE IT</text></g></g><rect x="1000" y="980" width="840" height="472.5" rx="10" fill="none" stroke="#35353C" stroke-width="1"/><text x="1000" y="1496.5" font-family="IBM Plex Mono" font-size="26" font-weight="500" fill="#3EAF75">12</text><text x="1052" y="1496.5" font-family="Bricolage Grotesque" font-size="26" font-weight="700" fill="#F2F2F0" letter-spacing="-0.5">The card isolates</text><text x="1840" y="1496.5" font-family="IBM Plex Mono" font-size="14" font-weight="400" fill="#8A8A91" text-anchor="end">0:24 · 2.0 s</text><text x="1000" y="1532.5" font-family="IBM Plex Mono" font-size="11" font-weight="500" fill="#8A8A91" letter-spacing="2">VISUAL</text><text x="1090" y="1532.5" font-family="Archivo" font-size="16" font-weight="400" fill="#B4B4B8">The new project card lifts out of the interface and floats alone in white space; the</text><text x="1090" y="1554.5" font-family="Archivo" font-size="16" font-weight="400" fill="#B4B4B8">app behind it melts into blur.</text><text x="1000" y="1584.5" font-family="IBM Plex Mono" font-size="11" font-weight="500" fill="#8A8A91" letter-spacing="2">MOTION</text><text x="1090" y="1584.5" font-family="Archivo" font-size="16" font-weight="400" fill="#B4B4B8">Card scales 1 → 1.4 toward camera while the UI behind defocuses (blur 0 → 24). Ref:</text><text x="1090" y="1606.5" font-family="Archivo" font-size="16" font-weight="400" fill="#B4B4B8">the single ticket card pulled out of the inbox.</text><text x="1000" y="1636.5" font-family="IBM Plex Mono" font-size="11" font-weight="500" fill="#3EAF75" letter-spacing="2">VO</text><text x="1090" y="1636.5" font-family="Archivo" font-size="16" font-weight="400" fill="#F2F2F0">—</text><text x="1000" y="1666.5" font-family="IBM Plex Mono" font-size="11" font-weight="500" fill="#8A8A91" letter-spacing="2">SFX</text><text x="1090" y="1666.5" font-family="Archivo" font-size="16" font-weight="400" fill="#B4B4B8">Soft lift whoosh.</text><text x="1000" y="1696.5" font-family="IBM Plex Mono" font-size="11" font-weight="500" fill="#8A8A91" letter-spacing="2">NEXT</text><text x="1090" y="1696.5" font-family="Archivo" font-size="16" font-weight="400" fill="#B4B4B8">A dark panel slides in from the right: the split screen.</text></svg>
